<svg width="117" height="43" viewBox="0 0 117 43" fill="none" xmlns="http://www.w3.org/2000/svg">
<g>
<path d="M4.52 27V1.24H22.04V4.64H8.88V12.44H20.56V15.8H8.88V27H4.52ZM30.2166 27.4C28.6699 27.4 27.4966 27.0267 26.6966 26.28C25.8966 25.5067 25.4966 24.24 25.4966 22.48V0.039999H29.8566V22.08C29.8566 22.8267 29.9899 23.3333 30.2566 23.6C30.5232 23.8667 30.9232 24 31.4566 24C32.0966 24 32.7099 23.92 33.2966 23.76V26.92C32.7899 27.1067 32.2966 27.2267 31.8166 27.28C31.3632 27.36 30.8299 27.4 30.2166 27.4ZM46.3075 27.4C43.0008 27.4 40.4408 26.5867 38.6275 24.96C36.8142 23.3333 35.9075 20.84 35.9075 17.48C35.9075 14.44 36.6808 12.04 38.2275 10.28C39.7742 8.52 42.1208 7.64 45.2675 7.64C48.1475 7.64 50.3075 8.4 51.7475 9.92C53.2142 11.4133 53.9475 13.3467 53.9475 15.72V19.24H40.0675C40.2808 21.08 40.9475 22.3467 42.0675 23.04C43.1875 23.7333 44.8942 24.08 47.1875 24.08C48.1475 24.08 49.1342 23.9867 50.1475 23.8C51.1608 23.6133 52.0408 23.3733 52.7875 23.08V26.28C51.9342 26.6533 50.9475 26.9333 49.8275 27.12C48.7342 27.3067 47.5608 27.4 46.3075 27.4ZM40.0675 16.4H50.1075V15.08C50.1075 13.7733 49.7475 12.76 49.0275 12.04C48.3075 11.2933 47.0942 10.92 45.3875 10.92C43.3608 10.92 41.9608 11.36 41.1875 12.24C40.4408 13.12 40.0675 14.5067 40.0675 16.4ZM67.7919 27.4C64.4852 27.4 61.9252 26.5867 60.1119 24.96C58.2985 23.3333 57.3919 20.84 57.3919 17.48C57.3919 14.44 58.1652 12.04 59.7119 10.28C61.2585 8.52 63.6052 7.64 66.7519 7.64C69.6319 7.64 71.7919 8.4 73.2319 9.92C74.6985 11.4133 75.4319 13.3467 75.4319 15.72V19.24H61.5519C61.7652 21.08 62.4319 22.3467 63.5519 23.04C64.6719 23.7333 66.3785 24.08 68.6719 24.08C69.6319 24.08 70.6185 23.9867 71.6319 23.8C72.6452 23.6133 73.5252 23.3733 74.2719 23.08V26.28C73.4185 26.6533 72.4319 26.9333 71.3119 27.12C70.2185 27.3067 69.0452 27.4 67.7919 27.4ZM61.5519 16.4H71.5919V15.08C71.5919 13.7733 71.2319 12.76 70.5119 12.04C69.7919 11.2933 68.5785 10.92 66.8719 10.92C64.8452 10.92 63.4452 11.36 62.6719 12.24C61.9252 13.12 61.5519 14.5067 61.5519 16.4ZM86.9163 27.4C84.8896 27.4 83.3696 26.8667 82.3563 25.8C81.3696 24.7067 80.8763 23.2267 80.8763 21.36V11.44H78.0763V8.04H80.8763V3.68L85.1963 2.36V8.04H90.2363L89.9563 11.44H85.1963V21.12C85.1963 22.2133 85.4496 22.9867 85.9563 23.44C86.4629 23.8667 87.2896 24.08 88.4363 24.08C89.1563 24.08 89.9163 23.9467 90.7163 23.68V26.76C89.6763 27.1867 88.4096 27.4 86.9163 27.4ZM96.5344 34.04C95.0944 34.04 93.8677 33.8533 92.8544 33.48V30.24C93.3077 30.4 93.721 30.5067 94.0944 30.56C94.4944 30.6133 94.8944 30.64 95.2944 30.64C96.121 30.64 96.7877 30.5067 97.2944 30.24C97.801 29.9733 98.241 29.5467 98.6144 28.96C99.0144 28.4 99.441 27.6667 99.8944 26.76L91.4544 8.04H95.9744L102.054 22.12L108.214 8.04H112.694L104.974 25.92C104.308 27.52 103.588 28.92 102.814 30.12C102.068 31.3467 101.188 32.3067 100.174 33C99.1877 33.6933 97.9744 34.04 96.5344 34.04Z" fill="black"/>
</g>
<defs>
<filter id="filter0_d_1_4" x="0.519997" y="0.039999" width="116.174" height="42" filterUnits="userSpaceOnUse" color-interpolation-filters="sRGB">
<feFlood flood-opacity="0" result="BackgroundImageFix"/>
<feColorMatrix in="SourceAlpha" type="matrix" values="0 0 0 0 0 0 0 0 0 0 0 0 0 0 0 0 0 0 127 0" result="hardAlpha"/>
<feOffset dy="4"/>
<feGaussianBlur stdDeviation="2"/>
<feComposite in2="hardAlpha" operator="out"/>
<feColorMatrix type="matrix" values="0 0 0 0 0 0 0 0 0 0 0 0 0 0 0 0 0 0 0.25 0"/>
<feBlend mode="normal" in2="BackgroundImageFix" result="effect1_dropShadow_1_4"/>
<feBlend mode="normal" in="SourceGraphic" in2="effect1_dropShadow_1_4" result="shape"/>
</filter>
</defs>
</svg>
