<svg width="1080" height="280" viewBox="0 0 1080 280" fill="none" xmlns="http://www.w3.org/2000/svg">
<g opacity="0.87">
<path d="M385.094 110.857H369.25L393.391 41.0134H412.375L436.469 110.857H420.672L415.469 94.9196H390.25L385.094 110.857ZM394 83.3884H411.719L403.141 56.9509H402.578L394 83.3884ZM467.196 111.888C461.915 111.888 457.337 110.763 453.462 108.513C449.618 106.232 446.649 103.076 444.556 99.0446C442.493 94.9821 441.462 90.2634 441.462 84.8884C441.462 79.4821 442.493 74.7478 444.556 70.6853C446.649 66.6228 449.618 63.4665 453.462 61.2165C457.337 58.9353 461.915 57.7946 467.196 57.7946C472.509 57.7946 477.087 58.9353 480.931 61.2165C484.806 63.4665 487.774 66.6228 489.837 70.6853C491.931 74.7478 492.978 79.4821 492.978 84.8884C492.978 90.2634 491.931 94.9821 489.837 99.0446C487.774 103.076 484.806 106.232 480.931 108.513C477.087 110.763 472.509 111.888 467.196 111.888ZM456.228 84.7946C456.228 89.3571 457.149 93.1228 458.993 96.0915C460.837 99.0603 463.587 100.545 467.243 100.545C470.868 100.545 473.603 99.0603 475.446 96.0915C477.29 93.1228 478.212 89.3571 478.212 84.7946C478.212 80.2321 477.29 76.4821 475.446 73.5446C473.603 70.6071 470.868 69.1384 467.243 69.1384C463.587 69.1384 460.837 70.6071 458.993 73.5446C457.149 76.4821 456.228 80.2321 456.228 84.7946ZM535.143 88.5915V58.4509H549.674V110.857H535.705V101.342H535.143C533.986 104.404 532.033 106.873 529.283 108.748C526.564 110.623 523.236 111.545 519.299 111.513C514.018 111.545 509.736 109.81 506.455 106.31C503.205 102.779 501.58 97.9509 501.58 91.8259V58.4509H516.111V89.2946C516.111 92.3571 516.939 94.7946 518.596 96.6071C520.252 98.3884 522.455 99.2634 525.205 99.2321C527.799 99.2634 530.096 98.3728 532.096 96.5603C534.127 94.7478 535.143 92.0915 535.143 88.5915ZM609.136 58.4509L590.807 110.857H574.401L556.167 58.4509H571.542L582.557 95.9978H583.12L593.948 58.4509H609.136ZM639.488 111.888C634.113 111.888 629.488 110.795 625.613 108.607C621.738 106.42 618.754 103.31 616.66 99.279C614.566 95.2165 613.519 90.4196 613.519 84.8884C613.519 79.5134 614.551 74.7946 616.613 70.7321C618.707 66.6696 621.644 63.4978 625.426 61.2165C629.207 58.9353 633.66 57.7946 638.785 57.7946C643.41 57.7946 647.582 58.779 651.301 60.7478C655.051 62.7165 658.019 65.6696 660.207 69.6071C662.426 73.5446 663.535 78.4821 663.535 84.4196V88.3571H627.816C627.973 92.3259 629.129 95.4353 631.285 97.6853C633.441 99.9353 636.254 101.06 639.723 101.06C642.129 101.06 644.191 100.545 645.91 99.5134C647.66 98.4821 648.91 96.9821 649.66 95.0134L663.066 95.904C662.035 100.717 659.457 104.592 655.332 107.529C651.238 110.435 645.957 111.888 639.488 111.888ZM627.91 79.404H649.613C649.269 76.0915 648.207 73.4665 646.426 71.529C644.644 69.5915 642.144 68.6228 638.926 68.6228C635.676 68.6228 633.098 69.6384 631.191 71.6696C629.316 73.6696 628.223 76.2478 627.91 79.404ZM633.207 51.9353L639.723 37.6384H653.035L643.285 51.9353H633.207Z" fill="#585858"/>
</g>
<path d="M-57 101.708C54.5379 61.5512 255.817 97.9679 277.114 101.708C420.869 126.956 556.848 135.229 655.742 120.711C720.764 110.313 741.271 83.0639 830.802 87.725C947.341 89.1591 1329.97 169.473 1414 133.26L1086 279L-30.491 271.3L-57 101.708Z" fill="#57C4FF"/>
<path d="M-204 103.387C288.653 78.1351 366.049 264.96 770.872 114.382C860.406 81.0791 1054.48 138.747 1093.49 132.437L1108.5 279.5L-189.5 272.5L-204 103.387Z" fill="#49BFFF"/>
<path d="M-169 144.678C301.559 124.613 467.4 296.6 810.386 155.222C882.414 125.532 1075.79 178.184 1100 168.974L1095.66 280H-159L-169 144.678Z" fill="url(#paint0_linear_354_2)"/>
<path d="M-142.49 174.433C314.545 174.433 480.408 302.208 830.394 198.185C947.94 151.182 1066.64 225.928 1098.24 213.903L1095.66 280H472.5H-159L-142.49 174.433Z" fill="url(#paint1_linear_354_2)"/>
<path opacity="0.83" d="M305.453 150V136.898H308.898V139.23H309.062C309.336 138.457 309.793 137.848 310.434 137.402C311.074 136.957 311.836 136.734 312.719 136.734C313.617 136.734 314.379 136.961 315.004 137.414C315.637 137.859 316.055 138.465 316.258 139.23H316.398C316.672 138.473 317.156 137.867 317.852 137.414C318.555 136.961 319.387 136.734 320.348 136.734C321.566 136.734 322.559 137.121 323.324 137.895C324.098 138.668 324.484 139.766 324.484 141.188V150H320.852V141.914C320.852 141.18 320.656 140.633 320.266 140.273C319.883 139.914 319.402 139.734 318.824 139.734C318.168 139.734 317.652 139.945 317.277 140.367C316.91 140.781 316.727 141.328 316.727 142.008V150H313.199V141.82C313.199 141.188 313.016 140.684 312.648 140.309C312.289 139.926 311.812 139.734 311.219 139.734C310.609 139.734 310.102 139.957 309.695 140.402C309.289 140.84 309.086 141.422 309.086 142.148V150H305.453ZM333.057 150.258C331.737 150.258 330.592 149.977 329.623 149.414C328.662 148.844 327.92 148.055 327.397 147.047C326.881 146.031 326.623 144.852 326.623 143.508C326.623 142.156 326.881 140.973 327.397 139.957C327.92 138.941 328.662 138.152 329.623 137.59C330.592 137.02 331.737 136.734 333.057 136.734C334.385 136.734 335.53 137.02 336.49 137.59C337.459 138.152 338.201 138.941 338.717 139.957C339.24 140.973 339.502 142.156 339.502 143.508C339.502 144.852 339.24 146.031 338.717 147.047C338.201 148.055 337.459 148.844 336.49 149.414C335.53 149.977 334.385 150.258 333.057 150.258ZM330.315 143.484C330.315 144.625 330.545 145.566 331.006 146.309C331.467 147.051 332.155 147.422 333.069 147.422C333.975 147.422 334.658 147.051 335.119 146.309C335.58 145.566 335.811 144.625 335.811 143.484C335.811 142.344 335.58 141.406 335.119 140.672C334.658 139.938 333.975 139.57 333.069 139.57C332.155 139.57 331.467 139.938 331.006 140.672C330.545 141.406 330.315 142.344 330.315 143.484ZM346.446 150.211C345.446 150.211 344.543 149.953 343.739 149.438C342.934 148.922 342.297 148.164 341.829 147.164C341.36 146.156 341.125 144.926 341.125 143.473C341.125 141.973 341.368 140.723 341.852 139.723C342.336 138.723 342.981 137.977 343.786 137.484C344.59 136.984 345.469 136.734 346.422 136.734C347.157 136.734 347.77 136.859 348.262 137.109C348.754 137.352 349.153 137.656 349.458 138.023C349.762 138.391 349.993 138.754 350.149 139.113H350.254V132.539H353.887V150H350.313V147.902H350.149C349.985 148.262 349.747 148.621 349.434 148.98C349.122 149.332 348.719 149.625 348.227 149.859C347.743 150.094 347.149 150.211 346.446 150.211ZM350.336 143.461C350.336 142.289 350.098 141.355 349.622 140.66C349.145 139.965 348.465 139.617 347.583 139.617C346.684 139.617 346 139.973 345.532 140.684C345.071 141.395 344.84 142.32 344.84 143.461C344.84 144.594 345.075 145.523 345.543 146.25C346.012 146.969 346.692 147.328 347.583 147.328C348.458 147.328 349.133 146.973 349.61 146.262C350.094 145.551 350.336 144.617 350.336 143.461ZM362.518 150.258C361.175 150.258 360.018 149.984 359.05 149.438C358.081 148.891 357.335 148.113 356.811 147.105C356.288 146.09 356.026 144.891 356.026 143.508C356.026 142.164 356.284 140.984 356.8 139.969C357.323 138.953 358.057 138.16 359.003 137.59C359.948 137.02 361.061 136.734 362.342 136.734C363.499 136.734 364.542 136.98 365.471 137.473C366.409 137.965 367.151 138.703 367.698 139.688C368.253 140.672 368.53 141.906 368.53 143.391V144.375H359.6C359.639 145.367 359.928 146.145 360.467 146.707C361.007 147.27 361.71 147.551 362.577 147.551C363.178 147.551 363.694 147.422 364.124 147.164C364.561 146.906 364.874 146.531 365.061 146.039L368.413 146.262C368.155 147.465 367.51 148.434 366.479 149.168C365.456 149.895 364.135 150.258 362.518 150.258ZM359.624 142.137H365.05C364.964 141.309 364.698 140.652 364.253 140.168C363.807 139.684 363.182 139.441 362.378 139.441C361.565 139.441 360.921 139.695 360.444 140.203C359.975 140.703 359.702 141.348 359.624 142.137ZM370.681 150V136.898H374.196V139.195H374.337C374.571 138.383 374.97 137.77 375.532 137.355C376.095 136.934 376.743 136.723 377.478 136.723C377.657 136.723 377.853 136.734 378.063 136.758C378.274 136.781 378.458 136.812 378.614 136.852V140.062C378.442 140.008 378.204 139.965 377.899 139.934C377.603 139.895 377.329 139.875 377.079 139.875C376.282 139.875 375.622 140.129 375.099 140.637C374.575 141.137 374.313 141.789 374.313 142.594V150H370.681ZM383.894 142.43V150H380.261V136.898H383.835V139.23H383.964C384.261 138.465 384.734 137.859 385.382 137.414C386.03 136.961 386.839 136.734 387.808 136.734C389.175 136.734 390.269 137.176 391.089 138.059C391.917 138.934 392.331 140.137 392.331 141.668V150H388.698V142.312C388.698 141.508 388.491 140.879 388.077 140.426C387.671 139.973 387.105 139.746 386.378 139.746C385.644 139.746 385.046 139.984 384.585 140.461C384.124 140.93 383.894 141.586 383.894 142.43ZM402.914 150L399.351 136.898H403.019L405.058 145.711H405.164L407.297 136.898H410.882L413.039 145.652H413.156L415.148 136.898H418.816L415.254 150H411.41L409.16 141.762H409.007L406.757 150H402.914ZM424.248 150.246C422.998 150.246 421.959 149.922 421.131 149.273C420.31 148.617 419.9 147.641 419.9 146.344C419.9 145.367 420.127 144.602 420.58 144.047C421.041 143.484 421.646 143.074 422.396 142.816C423.146 142.551 423.951 142.379 424.81 142.301C425.951 142.191 426.764 142.078 427.248 141.961C427.74 141.836 427.986 141.562 427.986 141.141V141.082C427.986 140.543 427.814 140.125 427.471 139.828C427.127 139.531 426.631 139.383 425.982 139.383C425.334 139.383 424.803 139.523 424.389 139.805C423.982 140.086 423.713 140.445 423.58 140.883L420.275 140.355C420.588 139.215 421.244 138.328 422.244 137.695C423.252 137.055 424.502 136.734 425.994 136.734C426.963 136.734 427.873 136.887 428.725 137.191C429.584 137.496 430.279 137.977 430.81 138.633C431.342 139.281 431.607 140.125 431.607 141.164V150H428.174V148.172H428.068C427.748 148.789 427.271 149.289 426.639 149.672C426.014 150.055 425.217 150.246 424.248 150.246ZM423.357 146.227C423.357 146.727 423.537 147.105 423.896 147.363C424.264 147.613 424.725 147.738 425.279 147.738C426.076 147.738 426.728 147.508 427.236 147.047C427.752 146.586 428.01 146.012 428.01 145.324V143.93C427.869 144.023 427.646 144.109 427.342 144.188C427.045 144.266 426.728 144.332 426.393 144.387C426.057 144.434 425.756 144.477 425.49 144.516C424.85 144.609 424.334 144.793 423.943 145.066C423.553 145.332 423.357 145.719 423.357 146.227ZM436.5 154.992C436.039 154.992 435.606 154.957 435.199 154.887C434.801 154.816 434.469 154.73 434.203 154.629L435.035 151.922L435.152 151.945C435.762 152.117 436.285 152.156 436.723 152.062C437.168 151.969 437.496 151.625 437.707 151.031L437.93 150.375L433.242 136.898H437.051L439.77 146.52H439.91L442.641 136.898H446.485L441.363 151.512C440.996 152.574 440.43 153.418 439.664 154.043C438.906 154.676 437.852 154.992 436.5 154.992ZM460.407 136.898V139.641H457.923V145.969C457.923 146.82 458.337 147.246 459.165 147.246C459.305 147.246 459.458 147.234 459.622 147.211C459.794 147.188 459.942 147.16 460.067 147.129L460.641 149.848C459.868 150.074 459.118 150.188 458.391 150.188C457.094 150.188 456.087 149.859 455.368 149.203C454.657 148.547 454.301 147.629 454.301 146.449V139.641H452.52V136.898H454.301V133.781H457.923V136.898H460.407ZM468.44 150.258C467.12 150.258 465.975 149.977 465.007 149.414C464.046 148.844 463.304 148.055 462.78 147.047C462.265 146.031 462.007 144.852 462.007 143.508C462.007 142.156 462.265 140.973 462.78 139.957C463.304 138.941 464.046 138.152 465.007 137.59C465.975 137.02 467.12 136.734 468.44 136.734C469.768 136.734 470.913 137.02 471.874 137.59C472.843 138.152 473.585 138.941 474.1 139.957C474.624 140.973 474.886 142.156 474.886 143.508C474.886 144.852 474.624 146.031 474.1 147.047C473.585 148.055 472.843 148.844 471.874 149.414C470.913 149.977 469.768 150.258 468.44 150.258ZM465.698 143.484C465.698 144.625 465.929 145.566 466.39 146.309C466.85 147.051 467.538 147.422 468.452 147.422C469.358 147.422 470.042 147.051 470.503 146.309C470.964 145.566 471.194 144.625 471.194 143.484C471.194 142.344 470.964 141.406 470.503 140.672C470.042 139.938 469.358 139.57 468.452 139.57C467.538 139.57 466.85 139.938 466.39 140.672C465.929 141.406 465.698 142.344 465.698 143.484ZM482.374 150V136.898H485.82V139.23H485.984C486.257 138.457 486.714 137.848 487.355 137.402C487.995 136.957 488.757 136.734 489.64 136.734C490.538 136.734 491.3 136.961 491.925 137.414C492.558 137.859 492.976 138.465 493.179 139.23H493.32C493.593 138.473 494.077 137.867 494.773 137.414C495.476 136.961 496.308 136.734 497.269 136.734C498.488 136.734 499.48 137.121 500.245 137.895C501.019 138.668 501.406 139.766 501.406 141.188V150H497.773V141.914C497.773 141.18 497.577 140.633 497.187 140.273C496.804 139.914 496.324 139.734 495.745 139.734C495.089 139.734 494.574 139.945 494.199 140.367C493.831 140.781 493.648 141.328 493.648 142.008V150H490.12V141.82C490.12 141.188 489.937 140.684 489.57 140.309C489.21 139.926 488.734 139.734 488.14 139.734C487.531 139.734 487.023 139.957 486.617 140.402C486.21 140.84 486.007 141.422 486.007 142.148V150H482.374ZM507.81 150.246C506.56 150.246 505.521 149.922 504.693 149.273C503.873 148.617 503.462 147.641 503.462 146.344C503.462 145.367 503.689 144.602 504.142 144.047C504.603 143.484 505.209 143.074 505.959 142.816C506.709 142.551 507.513 142.379 508.373 142.301C509.513 142.191 510.326 142.078 510.81 141.961C511.302 141.836 511.548 141.562 511.548 141.141V141.082C511.548 140.543 511.377 140.125 511.033 139.828C510.689 139.531 510.193 139.383 509.545 139.383C508.896 139.383 508.365 139.523 507.951 139.805C507.545 140.086 507.275 140.445 507.142 140.883L503.837 140.355C504.15 139.215 504.806 138.328 505.806 137.695C506.814 137.055 508.064 136.734 509.556 136.734C510.525 136.734 511.435 136.887 512.287 137.191C513.146 137.496 513.841 137.977 514.373 138.633C514.904 139.281 515.17 140.125 515.17 141.164V150H511.736V148.172H511.63C511.31 148.789 510.834 149.289 510.201 149.672C509.576 150.055 508.779 150.246 507.81 150.246ZM506.92 146.227C506.92 146.727 507.099 147.105 507.459 147.363C507.826 147.613 508.287 147.738 508.841 147.738C509.638 147.738 510.291 147.508 510.798 147.047C511.314 146.586 511.572 146.012 511.572 145.324V143.93C511.431 144.023 511.209 144.109 510.904 144.188C510.607 144.266 510.291 144.332 509.955 144.387C509.619 144.434 509.318 144.477 509.052 144.516C508.412 144.609 507.896 144.793 507.505 145.066C507.115 145.332 506.92 145.719 506.92 146.227ZM521.48 142.43V150H517.848V136.898H521.422V139.23H521.551C521.848 138.465 522.32 137.859 522.969 137.414C523.617 136.961 524.426 136.734 525.394 136.734C526.762 136.734 527.855 137.176 528.676 138.059C529.504 138.934 529.918 140.137 529.918 141.668V150H526.285V142.312C526.285 141.508 526.078 140.879 525.664 140.426C525.258 139.973 524.691 139.746 523.965 139.746C523.23 139.746 522.633 139.984 522.172 140.461C521.711 140.93 521.48 141.586 521.48 142.43ZM536.322 150.246C535.072 150.246 534.033 149.922 533.205 149.273C532.385 148.617 531.975 147.641 531.975 146.344C531.975 145.367 532.201 144.602 532.654 144.047C533.115 143.484 533.721 143.074 534.471 142.816C535.221 142.551 536.025 142.379 536.885 142.301C538.025 142.191 538.838 142.078 539.322 141.961C539.815 141.836 540.061 141.562 540.061 141.141V141.082C540.061 140.543 539.889 140.125 539.545 139.828C539.201 139.531 538.705 139.383 538.057 139.383C537.408 139.383 536.877 139.523 536.463 139.805C536.057 140.086 535.787 140.445 535.654 140.883L532.35 140.355C532.662 139.215 533.318 138.328 534.318 137.695C535.326 137.055 536.576 136.734 538.068 136.734C539.037 136.734 539.947 136.887 540.799 137.191C541.658 137.496 542.354 137.977 542.885 138.633C543.416 139.281 543.682 140.125 543.682 141.164V150H540.248V148.172H540.143C539.822 148.789 539.346 149.289 538.713 149.672C538.088 150.055 537.291 150.246 536.322 150.246ZM535.432 146.227C535.432 146.727 535.611 147.105 535.971 147.363C536.338 147.613 536.799 147.738 537.354 147.738C538.15 147.738 538.803 147.508 539.311 147.047C539.826 146.586 540.084 146.012 540.084 145.324V143.93C539.943 144.023 539.721 144.109 539.416 144.188C539.119 144.266 538.803 144.332 538.467 144.387C538.131 144.434 537.83 144.477 537.565 144.516C536.924 144.609 536.408 144.793 536.018 145.066C535.627 145.332 535.432 145.719 535.432 146.227ZM552.231 155.18C550.465 155.18 549.078 154.828 548.071 154.125C547.071 153.43 546.465 152.562 546.254 151.523L549.606 151.078C549.754 151.477 550.039 151.824 550.461 152.121C550.891 152.418 551.508 152.566 552.313 152.566C553.102 152.566 553.754 152.375 554.27 151.992C554.785 151.617 555.043 150.98 555.043 150.082V147.68H554.879C554.645 148.227 554.223 148.719 553.614 149.156C553.012 149.594 552.188 149.812 551.141 149.812C550.164 149.812 549.274 149.586 548.469 149.133C547.664 148.672 547.024 147.969 546.547 147.023C546.071 146.078 545.832 144.883 545.832 143.438C545.832 141.945 546.075 140.703 546.559 139.711C547.051 138.719 547.7 137.977 548.504 137.484C549.309 136.984 550.192 136.734 551.153 136.734C551.879 136.734 552.492 136.859 552.992 137.109C553.492 137.352 553.895 137.656 554.2 138.023C554.512 138.391 554.75 138.754 554.914 139.113H555.055V136.898H558.617V150.141C558.617 151.25 558.344 152.18 557.797 152.93C557.25 153.68 556.496 154.242 555.535 154.617C554.582 154.992 553.481 155.18 552.231 155.18ZM549.547 143.414C549.547 144.539 549.782 145.434 550.25 146.098C550.727 146.754 551.41 147.082 552.301 147.082C553.176 147.082 553.852 146.758 554.328 146.109C554.813 145.461 555.055 144.562 555.055 143.414C555.055 142.266 554.817 141.348 554.34 140.66C553.864 139.965 553.184 139.617 552.301 139.617C551.403 139.617 550.719 139.973 550.25 140.684C549.782 141.387 549.547 142.297 549.547 143.414ZM567.249 150.258C565.905 150.258 564.749 149.984 563.78 149.438C562.811 148.891 562.065 148.113 561.542 147.105C561.018 146.09 560.756 144.891 560.756 143.508C560.756 142.164 561.014 140.984 561.53 139.969C562.053 138.953 562.788 138.16 563.733 137.59C564.678 137.02 565.792 136.734 567.073 136.734C568.229 136.734 569.272 136.98 570.202 137.473C571.139 137.965 571.881 138.703 572.428 139.688C572.983 140.672 573.26 141.906 573.26 143.391V144.375H564.331C564.37 145.367 564.659 146.145 565.198 146.707C565.737 147.27 566.44 147.551 567.307 147.551C567.909 147.551 568.424 147.422 568.854 147.164C569.292 146.906 569.604 146.531 569.792 146.039L573.143 146.262C572.885 147.465 572.241 148.434 571.21 149.168C570.186 149.895 568.866 150.258 567.249 150.258ZM564.354 142.137H569.78C569.694 141.309 569.428 140.652 568.983 140.168C568.538 139.684 567.913 139.441 567.108 139.441C566.295 139.441 565.651 139.695 565.174 140.203C564.706 140.703 564.432 141.348 564.354 142.137ZM582.964 154.992C582.503 154.992 582.069 154.957 581.663 154.887C581.265 154.816 580.933 154.73 580.667 154.629L581.499 151.922L581.616 151.945C582.226 152.117 582.749 152.156 583.187 152.062C583.632 151.969 583.96 151.625 584.171 151.031L584.394 150.375L579.706 136.898H583.515L586.233 146.52H586.374L589.105 136.898H592.948L587.827 151.512C587.46 152.574 586.894 153.418 586.128 154.043C585.37 154.676 584.315 154.992 582.964 154.992ZM600.478 150.258C599.158 150.258 598.013 149.977 597.044 149.414C596.083 148.844 595.341 148.055 594.818 147.047C594.302 146.031 594.044 144.852 594.044 143.508C594.044 142.156 594.302 140.973 594.818 139.957C595.341 138.941 596.083 138.152 597.044 137.59C598.013 137.02 599.158 136.734 600.478 136.734C601.806 136.734 602.95 137.02 603.911 137.59C604.88 138.152 605.622 138.941 606.138 139.957C606.661 140.973 606.923 142.156 606.923 143.508C606.923 144.852 606.661 146.031 606.138 147.047C605.622 148.055 604.88 148.844 603.911 149.414C602.95 149.977 601.806 150.258 600.478 150.258ZM597.736 143.484C597.736 144.625 597.966 145.566 598.427 146.309C598.888 147.051 599.575 147.422 600.49 147.422C601.396 147.422 602.079 147.051 602.54 146.309C603.001 145.566 603.232 144.625 603.232 143.484C603.232 142.344 603.001 141.406 602.54 140.672C602.079 139.938 601.396 139.57 600.49 139.57C599.575 139.57 598.888 139.938 598.427 140.672C597.966 141.406 597.736 142.344 597.736 143.484ZM617.464 144.434V136.898H621.097V150H617.605V147.621H617.464C617.175 148.387 616.687 149.004 616 149.473C615.32 149.941 614.488 150.172 613.503 150.164C612.183 150.172 611.113 149.738 610.293 148.863C609.48 147.98 609.074 146.773 609.074 145.242V136.898H612.707V144.609C612.707 145.375 612.914 145.984 613.328 146.438C613.742 146.883 614.293 147.102 614.98 147.094C615.628 147.102 616.203 146.879 616.703 146.426C617.21 145.973 617.464 145.309 617.464 144.434ZM623.763 150V136.898H627.279V139.195H627.42C627.654 138.383 628.052 137.77 628.615 137.355C629.177 136.934 629.826 136.723 630.56 136.723C630.74 136.723 630.935 136.734 631.146 136.758C631.357 136.781 631.541 136.812 631.697 136.852V140.062C631.525 140.008 631.287 139.965 630.982 139.934C630.685 139.895 630.412 139.875 630.162 139.875C629.365 139.875 628.705 140.129 628.181 140.637C627.658 141.137 627.396 141.789 627.396 142.594V150H623.763ZM641.905 132.539L646.112 145.805H646.287L650.506 132.539H654.596L648.573 150H643.826L637.791 132.539H641.905ZM662.336 150.258C660.993 150.258 659.836 149.984 658.868 149.438C657.899 148.891 657.153 148.113 656.629 147.105C656.106 146.09 655.844 144.891 655.844 143.508C655.844 142.164 656.102 140.984 656.618 139.969C657.141 138.953 657.875 138.16 658.821 137.59C659.766 137.02 660.879 136.734 662.161 136.734C663.317 136.734 664.36 136.98 665.29 137.473C666.227 137.965 666.969 138.703 667.516 139.688C668.071 140.672 668.348 141.906 668.348 143.391V144.375H659.418C659.457 145.367 659.747 146.145 660.286 146.707C660.825 147.27 661.528 147.551 662.395 147.551C662.997 147.551 663.512 147.422 663.942 147.164C664.379 146.906 664.692 146.531 664.879 146.039L668.231 146.262C667.973 147.465 667.329 148.434 666.297 149.168C665.274 149.895 663.954 150.258 662.336 150.258ZM659.442 142.137H664.868C664.782 141.309 664.516 140.652 664.071 140.168C663.625 139.684 663 139.441 662.196 139.441C661.383 139.441 660.739 139.695 660.262 140.203C659.793 140.703 659.52 141.348 659.442 142.137ZM681.374 140.637L678.069 140.836C677.975 140.422 677.741 140.066 677.366 139.77C676.999 139.465 676.499 139.312 675.866 139.312C675.303 139.312 674.831 139.43 674.448 139.664C674.065 139.898 673.874 140.211 673.874 140.602C673.874 140.914 673.999 141.18 674.249 141.398C674.499 141.617 674.925 141.793 675.526 141.926L677.905 142.395C680.421 142.895 681.678 144.074 681.678 145.934C681.678 146.801 681.428 147.559 680.928 148.207C680.428 148.855 679.741 149.359 678.866 149.719C677.991 150.078 676.987 150.258 675.854 150.258C674.12 150.258 672.741 149.898 671.717 149.18C670.694 148.453 670.092 147.465 669.913 146.215L673.475 146.027C673.717 147.105 674.514 147.645 675.866 147.645C676.499 147.645 677.01 147.52 677.401 147.27C677.792 147.02 677.987 146.703 677.987 146.32C677.987 145.672 677.428 145.234 676.311 145.008L674.05 144.539C671.526 144.031 670.264 142.789 670.264 140.812C670.264 139.547 670.768 138.551 671.776 137.824C672.792 137.098 674.135 136.734 675.807 136.734C677.464 136.734 678.768 137.086 679.721 137.789C680.675 138.484 681.225 139.434 681.374 140.637ZM694.61 140.637L691.306 140.836C691.212 140.422 690.978 140.066 690.603 139.77C690.235 139.465 689.735 139.312 689.103 139.312C688.54 139.312 688.067 139.43 687.685 139.664C687.302 139.898 687.11 140.211 687.11 140.602C687.11 140.914 687.235 141.18 687.485 141.398C687.735 141.617 688.161 141.793 688.763 141.926L691.142 142.395C693.657 142.895 694.915 144.074 694.915 145.934C694.915 146.801 694.665 147.559 694.165 148.207C693.665 148.855 692.978 149.359 692.103 149.719C691.228 150.078 690.224 150.258 689.091 150.258C687.356 150.258 685.978 149.898 684.954 149.18C683.931 148.453 683.329 147.465 683.149 146.215L686.712 146.027C686.954 147.105 687.751 147.645 689.103 147.645C689.735 147.645 690.247 147.52 690.638 147.27C691.028 147.02 691.224 146.703 691.224 146.32C691.224 145.672 690.665 145.234 689.548 145.008L687.286 144.539C684.763 144.031 683.501 142.789 683.501 140.812C683.501 139.547 684.005 138.551 685.013 137.824C686.028 137.098 687.372 136.734 689.044 136.734C690.7 136.734 692.005 137.086 692.958 137.789C693.911 138.484 694.462 139.434 694.61 140.637ZM702.937 150.258C701.593 150.258 700.437 149.984 699.468 149.438C698.499 148.891 697.753 148.113 697.23 147.105C696.706 146.09 696.445 144.891 696.445 143.508C696.445 142.164 696.702 140.984 697.218 139.969C697.741 138.953 698.476 138.16 699.421 137.59C700.366 137.02 701.48 136.734 702.761 136.734C703.917 136.734 704.96 136.98 705.89 137.473C706.827 137.965 707.57 138.703 708.116 139.688C708.671 140.672 708.948 141.906 708.948 143.391V144.375H700.019C700.058 145.367 700.347 146.145 700.886 146.707C701.425 147.27 702.128 147.551 702.995 147.551C703.597 147.551 704.112 147.422 704.542 147.164C704.98 146.906 705.292 146.531 705.48 146.039L708.831 146.262C708.573 147.465 707.929 148.434 706.898 149.168C705.874 149.895 704.554 150.258 702.937 150.258ZM700.042 142.137H705.468C705.382 141.309 705.116 140.652 704.671 140.168C704.226 139.684 703.601 139.441 702.796 139.441C701.984 139.441 701.339 139.695 700.862 140.203C700.394 140.703 700.12 141.348 700.042 142.137ZM714.732 132.539V150H711.099V132.539H714.732ZM728.273 140.637L724.968 140.836C724.875 140.422 724.64 140.066 724.265 139.77C723.898 139.465 723.398 139.312 722.765 139.312C722.203 139.312 721.73 139.43 721.347 139.664C720.965 139.898 720.773 140.211 720.773 140.602C720.773 140.914 720.898 141.18 721.148 141.398C721.398 141.617 721.824 141.793 722.425 141.926L724.804 142.395C727.32 142.895 728.578 144.074 728.578 145.934C728.578 146.801 728.328 147.559 727.828 148.207C727.328 148.855 726.64 149.359 725.765 149.719C724.89 150.078 723.886 150.258 722.754 150.258C721.019 150.258 719.64 149.898 718.617 149.18C717.593 148.453 716.992 147.465 716.812 146.215L720.375 146.027C720.617 147.105 721.414 147.645 722.765 147.645C723.398 147.645 723.91 147.52 724.3 147.27C724.691 147.02 724.886 146.703 724.886 146.32C724.886 145.672 724.328 145.234 723.211 145.008L720.949 144.539C718.425 144.031 717.164 142.789 717.164 140.812C717.164 139.547 717.668 138.551 718.675 137.824C719.691 137.098 721.035 136.734 722.707 136.734C724.363 136.734 725.668 137.086 726.621 137.789C727.574 138.484 728.125 139.434 728.273 140.637Z" fill="white"/>
<defs>
<linearGradient id="paint0_linear_354_2" x1="-169" y1="234.668" x2="1100" y2="234.668" gradientUnits="userSpaceOnUse">
<stop offset="1" stop-color="#31B7FF"/>
<stop offset="1" stop-color="white"/>
</linearGradient>
<linearGradient id="paint1_linear_354_2" x1="465.25" y1="232.54" x2="465.318" y2="280" gradientUnits="userSpaceOnUse">
<stop stop-color="#15ADFF"/>
</linearGradient>
</defs>
</svg>
