<svg width="1080" height="280" viewBox="0 0 1080 280" fill="none" xmlns="http://www.w3.org/2000/svg">
<g filter="url(#filter0_d_354_2)">
<path d="M389.094 110.857H373.25L397.391 41.0134H416.375L440.469 110.857H424.672L419.469 94.9196H394.25L389.094 110.857ZM398 83.3884H415.719L407.141 56.9509H406.578L398 83.3884ZM471.196 111.888C465.915 111.888 461.337 110.763 457.462 108.513C453.618 106.232 450.649 103.076 448.556 99.0446C446.493 94.9821 445.462 90.2634 445.462 84.8884C445.462 79.4821 446.493 74.7478 448.556 70.6853C450.649 66.6228 453.618 63.4665 457.462 61.2165C461.337 58.9353 465.915 57.7946 471.196 57.7946C476.509 57.7946 481.087 58.9353 484.931 61.2165C488.806 63.4665 491.774 66.6228 493.837 70.6853C495.931 74.7478 496.978 79.4821 496.978 84.8884C496.978 90.2634 495.931 94.9821 493.837 99.0446C491.774 103.076 488.806 106.232 484.931 108.513C481.087 110.763 476.509 111.888 471.196 111.888ZM460.228 84.7946C460.228 89.3571 461.149 93.1228 462.993 96.0915C464.837 99.0603 467.587 100.545 471.243 100.545C474.868 100.545 477.603 99.0603 479.446 96.0915C481.29 93.1228 482.212 89.3571 482.212 84.7946C482.212 80.2321 481.29 76.4821 479.446 73.5446C477.603 70.6071 474.868 69.1384 471.243 69.1384C467.587 69.1384 464.837 70.6071 462.993 73.5446C461.149 76.4821 460.228 80.2321 460.228 84.7946ZM539.143 88.5915V58.4509H553.674V110.857H539.705V101.342H539.143C537.986 104.404 536.033 106.873 533.283 108.748C530.564 110.623 527.236 111.545 523.299 111.513C518.018 111.545 513.736 109.81 510.455 106.31C507.205 102.779 505.58 97.9509 505.58 91.8259V58.4509H520.111V89.2946C520.111 92.3571 520.939 94.7946 522.596 96.6071C524.252 98.3884 526.455 99.2634 529.205 99.2321C531.799 99.2634 534.096 98.3728 536.096 96.5603C538.127 94.7478 539.143 92.0915 539.143 88.5915ZM613.136 58.4509L594.807 110.857H578.401L560.167 58.4509H575.542L586.557 95.9978H587.12L597.948 58.4509H613.136ZM643.488 111.888C638.113 111.888 633.488 110.795 629.613 108.607C625.738 106.42 622.754 103.31 620.66 99.279C618.566 95.2165 617.519 90.4196 617.519 84.8884C617.519 79.5134 618.551 74.7946 620.613 70.7321C622.707 66.6696 625.644 63.4978 629.426 61.2165C633.207 58.9353 637.66 57.7946 642.785 57.7946C647.41 57.7946 651.582 58.779 655.301 60.7478C659.051 62.7165 662.019 65.6696 664.207 69.6071C666.426 73.5446 667.535 78.4821 667.535 84.4196V88.3571H631.816C631.973 92.3259 633.129 95.4353 635.285 97.6853C637.441 99.9353 640.254 101.06 643.723 101.06C646.129 101.06 648.191 100.545 649.91 99.5134C651.66 98.4821 652.91 96.9821 653.66 95.0134L667.066 95.904C666.035 100.717 663.457 104.592 659.332 107.529C655.238 110.435 649.957 111.888 643.488 111.888ZM631.91 79.404H653.613C653.269 76.0915 652.207 73.4665 650.426 71.529C648.644 69.5915 646.144 68.6228 642.926 68.6228C639.676 68.6228 637.098 69.6384 635.191 71.6696C633.316 73.6696 632.223 76.2478 631.91 79.404ZM637.207 51.9353L643.723 37.6384H657.035L647.285 51.9353H637.207Z" fill="#585858"/>
</g>
<path d="M-57 101.708C54.5379 61.5512 255.817 97.9679 277.114 101.708C420.869 126.956 556.848 135.229 655.742 120.711C720.764 110.313 741.271 83.0639 830.802 87.725C947.341 89.1591 1329.97 169.473 1414 133.26L1086 279L-30.491 271.3L-57 101.708Z" fill="#57C4FF"/>
<path d="M-204 103.387C288.653 78.1351 366.049 264.96 770.872 114.382C860.406 81.0791 1054.48 138.747 1093.49 132.437L1108.5 279.5L-189.5 272.5L-204 103.387Z" fill="#49BFFF"/>
<path d="M-169 144.678C301.559 124.613 467.4 296.6 810.386 155.222C882.414 125.532 1075.79 178.184 1100 168.974L1095.66 280H-159L-169 144.678Z" fill="url(#paint0_linear_354_2)"/>
<path d="M-142.49 174.433C314.545 174.433 480.408 302.208 830.394 198.185C947.94 151.182 1066.64 225.928 1098.24 213.903L1095.66 280H472.5H-159L-142.49 174.433Z" fill="url(#paint1_linear_354_2)"/>
<defs>
<filter id="filter0_d_354_2" x="363.1" y="-3.9" width="316.8" height="176.514" filterUnits="userSpaceOnUse" color-interpolation-filters="sRGB">
<feFlood flood-opacity="0" result="BackgroundImageFix"/>
<feColorMatrix in="SourceAlpha" type="matrix" values="0 0 0 0 0 0 0 0 0 0 0 0 0 0 0 0 0 0 127 0" result="hardAlpha"/>
<feOffset dy="4"/>
<feGaussianBlur stdDeviation="3.95"/>
<feComposite in2="hardAlpha" operator="out"/>
<feColorMatrix type="matrix" values="0 0 0 0 0 0 0 0 0 0 0 0 0 0 0 0 0 0 0.25 0"/>
<feBlend mode="normal" in2="BackgroundImageFix" result="effect1_dropShadow_354_2"/>
<feBlend mode="normal" in="SourceGraphic" in2="effect1_dropShadow_354_2" result="shape"/>
</filter>
<linearGradient id="paint0_linear_354_2" x1="-169" y1="234.668" x2="1100" y2="234.668" gradientUnits="userSpaceOnUse">
<stop offset="1" stop-color="#31B7FF"/>
<stop offset="1" stop-color="white"/>
</linearGradient>
<linearGradient id="paint1_linear_354_2" x1="465.25" y1="232.54" x2="465.318" y2="280" gradientUnits="userSpaceOnUse">
<stop stop-color="#15ADFF"/>
</linearGradient>
</defs>
</svg>
