<svg width="339" height="127" viewBox="0 0 339 127" fill="none" xmlns="http://www.w3.org/2000/svg">
<g opacity="0.87">
<path d="M25.92 74.5L50.496 6.34H61.632L86.208 74.5H77.184L70.368 55.108H41.76L34.944 74.5H25.92ZM44.544 47.044H67.584L56.064 13.54L44.544 47.044ZM113.03 75.652C108.358 75.652 104.262 74.564 100.742 72.388C97.2215 70.212 94.5015 67.14 92.5815 63.172C90.6615 59.14 89.7015 54.436 89.7015 49.06C89.7015 43.62 90.6615 38.916 92.5815 34.948C94.5015 30.98 97.2215 27.908 100.742 25.732C104.262 23.556 108.358 22.468 113.03 22.468C117.702 22.468 121.766 23.556 125.222 25.732C128.742 27.908 131.462 30.98 133.382 34.948C135.302 38.916 136.262 43.62 136.262 49.06C136.262 54.436 135.302 59.14 133.382 63.172C131.462 67.14 128.742 70.212 125.222 72.388C121.766 74.564 117.702 75.652 113.03 75.652ZM113.03 67.972C117.702 67.972 121.318 66.308 123.878 62.98C126.502 59.588 127.814 54.948 127.814 49.06C127.814 43.172 126.502 38.564 123.878 35.236C121.318 31.844 117.702 30.148 113.03 30.148C108.358 30.148 104.71 31.844 102.086 35.236C99.4615 38.564 98.1495 43.172 98.1495 49.06C98.1495 54.948 99.4615 59.588 102.086 62.98C104.71 66.308 108.358 67.972 113.03 67.972ZM162.995 75.652C157.939 75.652 153.875 73.956 150.803 70.564C147.795 67.108 146.291 62.372 146.291 56.356V23.62H154.355V54.148C154.355 59.076 155.219 62.724 156.947 65.092C158.739 67.396 161.459 68.548 165.107 68.548C169.139 68.548 172.307 67.268 174.611 64.708C176.915 62.084 178.067 58.5 178.067 53.956V23.62H186.131V74.5H178.451V61.924L179.699 62.596C178.675 66.756 176.723 69.988 173.843 72.292C170.963 74.532 167.347 75.652 162.995 75.652ZM211.635 74.5L193.107 23.62H201.939L216.723 66.244L231.507 23.62H240.339L221.811 74.5H211.635ZM266.525 75.652C261.725 75.652 257.565 74.564 254.045 72.388C250.589 70.212 247.901 67.14 245.981 63.172C244.125 59.14 243.197 54.436 243.197 49.06C243.197 43.684 244.125 39.012 245.981 35.044C247.901 31.076 250.557 28.004 253.949 25.828C257.405 23.588 261.469 22.468 266.141 22.468C270.557 22.468 274.461 23.524 277.853 25.636C281.245 27.684 283.869 30.692 285.725 34.66C287.645 38.628 288.605 43.46 288.605 49.156V51.556H251.645C251.965 56.996 253.405 61.092 255.965 63.844C258.589 66.596 262.109 67.972 266.525 67.972C269.853 67.972 272.573 67.204 274.685 65.668C276.861 64.068 278.365 61.988 279.197 59.428L287.837 60.1C286.493 64.644 283.933 68.388 280.157 71.332C276.445 74.212 271.901 75.652 266.525 75.652ZM251.645 44.452H279.773C279.389 39.524 277.949 35.908 275.453 33.604C273.021 31.3 269.917 30.148 266.141 30.148C262.237 30.148 259.005 31.364 256.445 33.796C253.949 36.164 252.349 39.716 251.645 44.452ZM262.973 17.284L269.309 4.996H278.333L269.693 17.284H262.973Z" fill="#585858"/>
</g>
<path opacity="0.5" d="M7.224 117.288C5.944 117.288 4.832 117.016 3.888 116.472C2.944 115.912 2.216 115.128 1.704 114.12C1.192 113.112 0.936 111.936 0.936 110.592C0.936 109.248 1.192 108.08 1.704 107.088C2.216 106.08 2.936 105.296 3.864 104.736C4.808 104.176 5.904 103.896 7.152 103.896C8.368 103.896 9.432 104.168 10.344 104.712C11.272 105.256 11.984 106.04 12.48 107.064C12.976 108.088 13.224 109.32 13.224 110.76V111.456H4.128C4.192 112.576 4.496 113.424 5.04 114C5.6 114.56 6.336 114.84 7.248 114.84C7.936 114.84 8.504 114.688 8.952 114.384C9.416 114.064 9.736 113.624 9.912 113.064L13.056 113.256C12.704 114.504 12.008 115.488 10.968 116.208C9.944 116.928 8.696 117.288 7.224 117.288ZM4.128 109.392H10.056C9.992 108.352 9.696 107.584 9.168 107.088C8.64 106.576 7.968 106.32 7.152 106.32C6.336 106.32 5.656 106.584 5.112 107.112C4.584 107.64 4.256 108.4 4.128 109.392ZM16.2371 117V103.68C16.2371 102.528 16.5571 101.624 17.1971 100.968C17.8531 100.296 18.8531 99.96 20.1971 99.96H22.6931V102.336H20.7731C20.2771 102.336 19.9091 102.464 19.6691 102.72C19.4451 102.976 19.3331 103.352 19.3331 103.848V117H16.2371ZM14.4131 106.896V104.52H22.5251V106.896H14.4131ZM24.1091 117V103.68C24.1091 102.528 24.4291 101.624 25.0691 100.968C25.7251 100.296 26.7251 99.96 28.0691 99.96H30.5651V102.336H28.6451C28.1491 102.336 27.7811 102.464 27.5411 102.72C27.3171 102.976 27.2051 103.352 27.2051 103.848V117H24.1091ZM22.2851 106.896V104.52H30.3971V106.896H22.2851ZM32.4891 117V104.184H35.5611V117H32.4891ZM32.4411 102.48V99.744H35.6331V102.48H32.4411ZM44.028 117.288C42.748 117.288 41.636 117.016 40.692 116.472C39.748 115.912 39.012 115.128 38.484 114.12C37.972 113.112 37.716 111.936 37.716 110.592C37.716 109.248 37.972 108.08 38.484 107.088C39.012 106.08 39.748 105.296 40.692 104.736C41.636 104.176 42.748 103.896 44.028 103.896C45.116 103.896 46.084 104.088 46.932 104.472C47.78 104.856 48.468 105.408 48.996 106.128C49.54 106.832 49.876 107.696 50.004 108.72L46.836 108.888C46.708 108.072 46.388 107.456 45.876 107.04C45.38 106.608 44.764 106.392 44.028 106.392C43.036 106.392 42.268 106.768 41.724 107.52C41.18 108.256 40.908 109.28 40.908 110.592C40.908 111.92 41.18 112.952 41.724 113.688C42.268 114.424 43.036 114.792 44.028 114.792C44.78 114.792 45.404 114.576 45.9 114.144C46.412 113.712 46.724 113.04 46.836 112.128L50.004 112.272C49.876 113.296 49.548 114.184 49.02 114.936C48.492 115.688 47.804 116.272 46.956 116.688C46.108 117.088 45.132 117.288 44.028 117.288ZM51.9075 117V104.184H54.9795V117H51.9075ZM51.8595 102.48V99.744H55.0515V102.48H51.8595ZM63.4224 117.288C62.1424 117.288 61.0304 117.016 60.0864 116.472C59.1424 115.912 58.4144 115.128 57.9024 114.12C57.3904 113.112 57.1344 111.936 57.1344 110.592C57.1344 109.248 57.3904 108.08 57.9024 107.088C58.4144 106.08 59.1344 105.296 60.0624 104.736C61.0064 104.176 62.1024 103.896 63.3504 103.896C64.5664 103.896 65.6304 104.168 66.5424 104.712C67.4704 105.256 68.1824 106.04 68.6784 107.064C69.1744 108.088 69.4224 109.32 69.4224 110.76V111.456H60.3264C60.3904 112.576 60.6944 113.424 61.2384 114C61.7984 114.56 62.5344 114.84 63.4464 114.84C64.1344 114.84 64.7024 114.688 65.1504 114.384C65.6144 114.064 65.9344 113.624 66.1104 113.064L69.2544 113.256C68.9024 114.504 68.2064 115.488 67.1664 116.208C66.1424 116.928 64.8944 117.288 63.4224 117.288ZM60.3264 109.392H66.2544C66.1904 108.352 65.8944 107.584 65.3664 107.088C64.8384 106.576 64.1664 106.32 63.3504 106.32C62.5344 106.32 61.8544 106.584 61.3104 107.112C60.7824 107.64 60.4544 108.4 60.3264 109.392ZM71.5837 117V104.184H74.3677L74.4877 107.784L74.1277 107.64C74.2557 106.744 74.5197 106.024 74.9197 105.48C75.3197 104.936 75.8077 104.536 76.3837 104.28C76.9597 104.024 77.5917 103.896 78.2797 103.896C79.2237 103.896 80.0157 104.104 80.6557 104.52C81.3117 104.936 81.8077 105.512 82.1437 106.248C82.4797 106.968 82.6477 107.808 82.6477 108.768V117H79.5757V109.752C79.5757 109.032 79.5037 108.424 79.3597 107.928C79.2157 107.432 78.9757 107.056 78.6397 106.8C78.3197 106.528 77.8877 106.392 77.3437 106.392C76.5277 106.392 75.8717 106.68 75.3757 107.256C74.8957 107.832 74.6557 108.664 74.6557 109.752V117H71.5837ZM90.0032 117C88.7232 117 87.7792 116.704 87.1712 116.112C86.5792 115.52 86.2832 114.592 86.2832 113.328V101.184H89.3552V113.04C89.3552 113.632 89.4832 114.048 89.7392 114.288C89.9952 114.512 90.3952 114.624 90.9392 114.624H92.7392V117H90.0032ZM84.2672 106.56V104.184H92.7392V106.56H84.2672ZM103.805 117L99.1252 104.184H102.365L105.629 113.904L108.893 104.184H112.133L107.453 117H103.805ZM118.941 117.288C117.661 117.288 116.549 117.016 115.605 116.472C114.661 115.912 113.933 115.128 113.421 114.12C112.909 113.112 112.653 111.936 112.653 110.592C112.653 109.248 112.909 108.08 113.421 107.088C113.933 106.08 114.653 105.296 115.581 104.736C116.525 104.176 117.621 103.896 118.869 103.896C120.085 103.896 121.149 104.168 122.061 104.712C122.989 105.256 123.701 106.04 124.197 107.064C124.693 108.088 124.941 109.32 124.941 110.76V111.456H115.845C115.909 112.576 116.213 113.424 116.757 114C117.317 114.56 118.053 114.84 118.965 114.84C119.653 114.84 120.221 114.688 120.669 114.384C121.133 114.064 121.453 113.624 121.629 113.064L124.773 113.256C124.421 114.504 123.725 115.488 122.685 116.208C121.661 116.928 120.413 117.288 118.941 117.288ZM115.845 109.392H121.773C121.709 108.352 121.413 107.584 120.885 107.088C120.357 106.576 119.685 106.32 118.869 106.32C118.053 106.32 117.373 106.584 116.829 107.112C116.301 107.64 115.973 108.4 115.845 109.392ZM132.311 117.288C131.047 117.288 129.983 117.104 129.119 116.736C128.271 116.368 127.615 115.856 127.151 115.2C126.687 114.544 126.423 113.8 126.359 112.968L129.503 112.824C129.615 113.496 129.895 114.016 130.343 114.384C130.791 114.752 131.455 114.936 132.335 114.936C133.055 114.936 133.615 114.824 134.015 114.6C134.431 114.36 134.639 113.992 134.639 113.496C134.639 113.208 134.567 112.968 134.423 112.776C134.279 112.584 134.007 112.416 133.607 112.272C133.207 112.128 132.615 111.984 131.831 111.84C130.519 111.616 129.487 111.344 128.735 111.024C127.983 110.688 127.447 110.272 127.127 109.776C126.823 109.28 126.671 108.664 126.671 107.928C126.671 106.728 127.127 105.76 128.039 105.024C128.967 104.272 130.319 103.896 132.095 103.896C133.247 103.896 134.215 104.088 134.999 104.472C135.783 104.84 136.391 105.352 136.823 106.008C137.271 106.648 137.551 107.384 137.663 108.216L134.567 108.36C134.487 107.928 134.343 107.552 134.135 107.232C133.927 106.912 133.647 106.672 133.295 106.512C132.943 106.336 132.527 106.248 132.047 106.248C131.327 106.248 130.783 106.392 130.415 106.68C130.047 106.968 129.863 107.352 129.863 107.832C129.863 108.168 129.943 108.448 130.103 108.672C130.279 108.896 130.559 109.08 130.943 109.224C131.327 109.352 131.839 109.472 132.479 109.584C133.823 109.792 134.879 110.064 135.647 110.4C136.431 110.72 136.983 111.136 137.303 111.648C137.639 112.144 137.807 112.744 137.807 113.448C137.807 114.264 137.575 114.96 137.111 115.536C136.663 116.112 136.023 116.552 135.191 116.856C134.375 117.144 133.415 117.288 132.311 117.288ZM145.172 117.288C143.908 117.288 142.844 117.104 141.98 116.736C141.132 116.368 140.476 115.856 140.012 115.2C139.548 114.544 139.284 113.8 139.22 112.968L142.364 112.824C142.476 113.496 142.756 114.016 143.204 114.384C143.652 114.752 144.316 114.936 145.196 114.936C145.916 114.936 146.476 114.824 146.876 114.6C147.292 114.36 147.5 113.992 147.5 113.496C147.5 113.208 147.428 112.968 147.284 112.776C147.14 112.584 146.868 112.416 146.468 112.272C146.068 112.128 145.476 111.984 144.692 111.84C143.38 111.616 142.348 111.344 141.596 111.024C140.844 110.688 140.308 110.272 139.988 109.776C139.684 109.28 139.532 108.664 139.532 107.928C139.532 106.728 139.988 105.76 140.9 105.024C141.828 104.272 143.18 103.896 144.956 103.896C146.108 103.896 147.076 104.088 147.86 104.472C148.644 104.84 149.252 105.352 149.684 106.008C150.132 106.648 150.412 107.384 150.524 108.216L147.428 108.36C147.348 107.928 147.204 107.552 146.996 107.232C146.788 106.912 146.508 106.672 146.156 106.512C145.804 106.336 145.388 106.248 144.908 106.248C144.188 106.248 143.644 106.392 143.276 106.68C142.908 106.968 142.724 107.352 142.724 107.832C142.724 108.168 142.804 108.448 142.964 108.672C143.14 108.896 143.42 109.08 143.804 109.224C144.188 109.352 144.7 109.472 145.34 109.584C146.684 109.792 147.74 110.064 148.508 110.4C149.292 110.72 149.844 111.136 150.164 111.648C150.5 112.144 150.668 112.744 150.668 113.448C150.668 114.264 150.436 114.96 149.972 115.536C149.524 116.112 148.884 116.552 148.052 116.856C147.236 117.144 146.276 117.288 145.172 117.288ZM158.37 117.288C157.09 117.288 155.978 117.016 155.034 116.472C154.09 115.912 153.362 115.128 152.85 114.12C152.338 113.112 152.082 111.936 152.082 110.592C152.082 109.248 152.338 108.08 152.85 107.088C153.362 106.08 154.082 105.296 155.01 104.736C155.954 104.176 157.05 103.896 158.298 103.896C159.514 103.896 160.578 104.168 161.49 104.712C162.418 105.256 163.13 106.04 163.626 107.064C164.122 108.088 164.37 109.32 164.37 110.76V111.456H155.274C155.338 112.576 155.642 113.424 156.186 114C156.746 114.56 157.482 114.84 158.394 114.84C159.082 114.84 159.65 114.688 160.098 114.384C160.562 114.064 160.882 113.624 161.058 113.064L164.202 113.256C163.85 114.504 163.154 115.488 162.114 116.208C161.09 116.928 159.842 117.288 158.37 117.288ZM155.274 109.392H161.202C161.138 108.352 160.842 107.584 160.314 107.088C159.786 106.576 159.114 106.32 158.298 106.32C157.482 106.32 156.802 106.584 156.258 107.112C155.73 107.64 155.402 108.4 155.274 109.392ZM169.72 117C168.792 117 168.048 116.76 167.488 116.28C166.928 115.8 166.648 115.032 166.648 113.976V99.96H169.72V113.664C169.72 113.984 169.8 114.224 169.96 114.384C170.136 114.544 170.376 114.624 170.68 114.624H171.616V117H169.72ZM178.554 117.288C177.29 117.288 176.226 117.104 175.362 116.736C174.514 116.368 173.858 115.856 173.394 115.2C172.93 114.544 172.666 113.8 172.602 112.968L175.746 112.824C175.858 113.496 176.138 114.016 176.586 114.384C177.034 114.752 177.698 114.936 178.578 114.936C179.298 114.936 179.858 114.824 180.258 114.6C180.674 114.36 180.882 113.992 180.882 113.496C180.882 113.208 180.81 112.968 180.666 112.776C180.522 112.584 180.25 112.416 179.85 112.272C179.45 112.128 178.858 111.984 178.074 111.84C176.762 111.616 175.73 111.344 174.978 111.024C174.226 110.688 173.69 110.272 173.37 109.776C173.066 109.28 172.914 108.664 172.914 107.928C172.914 106.728 173.37 105.76 174.282 105.024C175.21 104.272 176.562 103.896 178.338 103.896C179.49 103.896 180.458 104.088 181.242 104.472C182.026 104.84 182.634 105.352 183.066 106.008C183.514 106.648 183.794 107.384 183.906 108.216L180.81 108.36C180.73 107.928 180.586 107.552 180.378 107.232C180.17 106.912 179.89 106.672 179.538 106.512C179.186 106.336 178.77 106.248 178.29 106.248C177.57 106.248 177.026 106.392 176.658 106.68C176.29 106.968 176.106 107.352 176.106 107.832C176.106 108.168 176.186 108.448 176.346 108.672C176.522 108.896 176.802 109.08 177.186 109.224C177.57 109.352 178.082 109.472 178.722 109.584C180.066 109.792 181.122 110.064 181.89 110.4C182.674 110.72 183.226 111.136 183.546 111.648C183.882 112.144 184.05 112.744 184.05 113.448C184.05 114.264 183.818 114.96 183.354 115.536C182.906 116.112 182.266 116.552 181.434 116.856C180.618 117.144 179.658 117.288 178.554 117.288ZM191.873 117V104.184H194.657L194.753 107.328L194.465 107.184C194.609 106.496 194.857 105.912 195.209 105.432C195.577 104.936 196.017 104.56 196.529 104.304C197.057 104.032 197.633 103.896 198.257 103.896C199.345 103.896 200.225 104.208 200.897 104.832C201.569 105.44 201.993 106.28 202.169 107.352H201.761C201.905 106.6 202.153 105.976 202.505 105.48C202.857 104.968 203.297 104.576 203.825 104.304C204.369 104.032 204.977 103.896 205.649 103.896C206.529 103.896 207.289 104.088 207.929 104.472C208.569 104.84 209.057 105.384 209.393 106.104C209.745 106.824 209.921 107.712 209.921 108.768V117H206.849V109.56C206.849 108.504 206.665 107.712 206.297 107.184C205.945 106.656 205.401 106.392 204.665 106.392C204.169 106.392 203.745 106.52 203.393 106.776C203.041 107.032 202.769 107.408 202.577 107.904C202.401 108.384 202.313 108.968 202.313 109.656V117H199.457V109.656C199.457 108.6 199.297 107.792 198.977 107.232C198.657 106.672 198.105 106.392 197.321 106.392C196.825 106.392 196.401 106.52 196.049 106.776C195.713 107.032 195.441 107.408 195.233 107.904C195.041 108.384 194.945 108.968 194.945 109.656V117H191.873ZM216.471 117.288C215.127 117.288 214.047 116.984 213.231 116.376C212.415 115.752 212.007 114.888 212.007 113.784C212.007 112.68 212.351 111.816 213.039 111.192C213.727 110.568 214.775 110.12 216.183 109.848L220.431 109.008C220.431 108.096 220.223 107.416 219.807 106.968C219.391 106.504 218.775 106.272 217.959 106.272C217.223 106.272 216.639 106.448 216.207 106.8C215.791 107.136 215.503 107.624 215.343 108.264L212.223 108.12C212.479 106.76 213.103 105.72 214.095 105C215.087 104.264 216.375 103.896 217.959 103.896C219.783 103.896 221.159 104.36 222.087 105.288C223.031 106.2 223.503 107.512 223.503 109.224V113.88C223.503 114.216 223.559 114.448 223.671 114.576C223.799 114.704 223.983 114.768 224.223 114.768H224.631V117C224.535 117.032 224.375 117.056 224.151 117.072C223.943 117.088 223.727 117.096 223.503 117.096C222.975 117.096 222.503 117.016 222.087 116.856C221.671 116.68 221.351 116.384 221.127 115.968C220.903 115.536 220.791 114.952 220.791 114.216L221.055 114.408C220.927 114.968 220.647 115.472 220.215 115.92C219.799 116.352 219.271 116.688 218.631 116.928C217.991 117.168 217.271 117.288 216.471 117.288ZM217.095 115.056C217.783 115.056 218.375 114.92 218.871 114.648C219.367 114.376 219.751 114 220.023 113.52C220.295 113.04 220.431 112.472 220.431 111.816V111.096L217.119 111.768C216.431 111.912 215.935 112.128 215.631 112.416C215.343 112.688 215.199 113.048 215.199 113.496C215.199 113.992 215.359 114.376 215.679 114.648C216.015 114.92 216.487 115.056 217.095 115.056ZM226.386 117V104.184H229.17L229.29 107.784L228.93 107.64C229.058 106.744 229.322 106.024 229.722 105.48C230.122 104.936 230.61 104.536 231.186 104.28C231.762 104.024 232.394 103.896 233.082 103.896C234.026 103.896 234.818 104.104 235.458 104.52C236.114 104.936 236.61 105.512 236.946 106.248C237.282 106.968 237.45 107.808 237.45 108.768V117H234.378V109.752C234.378 109.032 234.306 108.424 234.162 107.928C234.018 107.432 233.778 107.056 233.442 106.8C233.122 106.528 232.69 106.392 232.146 106.392C231.33 106.392 230.674 106.68 230.178 107.256C229.698 107.832 229.458 108.664 229.458 109.752V117H226.386ZM243.998 117.288C242.654 117.288 241.574 116.984 240.758 116.376C239.942 115.752 239.534 114.888 239.534 113.784C239.534 112.68 239.878 111.816 240.566 111.192C241.254 110.568 242.302 110.12 243.71 109.848L247.958 109.008C247.958 108.096 247.75 107.416 247.334 106.968C246.918 106.504 246.302 106.272 245.486 106.272C244.75 106.272 244.166 106.448 243.734 106.8C243.318 107.136 243.03 107.624 242.87 108.264L239.75 108.12C240.006 106.76 240.63 105.72 241.622 105C242.614 104.264 243.902 103.896 245.486 103.896C247.31 103.896 248.686 104.36 249.614 105.288C250.558 106.2 251.03 107.512 251.03 109.224V113.88C251.03 114.216 251.086 114.448 251.198 114.576C251.326 114.704 251.51 114.768 251.75 114.768H252.158V117C252.062 117.032 251.902 117.056 251.678 117.072C251.47 117.088 251.254 117.096 251.03 117.096C250.502 117.096 250.03 117.016 249.614 116.856C249.198 116.68 248.878 116.384 248.654 115.968C248.43 115.536 248.318 114.952 248.318 114.216L248.582 114.408C248.454 114.968 248.174 115.472 247.742 115.92C247.326 116.352 246.798 116.688 246.158 116.928C245.518 117.168 244.798 117.288 243.998 117.288ZM244.622 115.056C245.31 115.056 245.902 114.92 246.398 114.648C246.894 114.376 247.278 114 247.55 113.52C247.822 113.04 247.958 112.472 247.958 111.816V111.096L244.646 111.768C243.958 111.912 243.462 112.128 243.158 112.416C242.87 112.688 242.726 113.048 242.726 113.496C242.726 113.992 242.886 114.376 243.206 114.648C243.542 114.92 244.014 115.056 244.622 115.056ZM259.245 120.888C258.125 120.888 257.165 120.736 256.365 120.432C255.565 120.128 254.917 119.696 254.421 119.136C253.941 118.592 253.605 117.96 253.413 117.24L256.581 117.024C256.741 117.504 257.013 117.88 257.397 118.152C257.797 118.424 258.413 118.56 259.245 118.56C260.189 118.56 260.917 118.344 261.429 117.912C261.941 117.496 262.197 116.84 262.197 115.944V114.312C261.893 114.936 261.405 115.44 260.733 115.824C260.061 116.192 259.309 116.376 258.477 116.376C257.421 116.376 256.477 116.12 255.645 115.608C254.829 115.08 254.189 114.352 253.725 113.424C253.261 112.48 253.029 111.392 253.029 110.16C253.029 108.928 253.253 107.848 253.701 106.92C254.165 105.976 254.805 105.24 255.621 104.712C256.437 104.168 257.373 103.896 258.429 103.896C259.357 103.896 260.157 104.104 260.829 104.52C261.501 104.936 261.989 105.488 262.293 106.176V104.184H265.293V115.872C265.293 116.96 265.037 117.88 264.525 118.632C264.029 119.384 263.325 119.944 262.413 120.312C261.517 120.696 260.461 120.888 259.245 120.888ZM259.197 113.976C260.109 113.976 260.837 113.64 261.381 112.968C261.925 112.28 262.205 111.336 262.221 110.136C262.237 109.336 262.117 108.656 261.861 108.096C261.621 107.52 261.269 107.08 260.805 106.776C260.357 106.456 259.821 106.296 259.197 106.296C258.253 106.296 257.517 106.648 256.989 107.352C256.477 108.04 256.221 108.968 256.221 110.136C256.221 111.304 256.485 112.24 257.013 112.944C257.557 113.632 258.285 113.976 259.197 113.976ZM273.725 117.288C272.445 117.288 271.333 117.016 270.389 116.472C269.445 115.912 268.717 115.128 268.205 114.12C267.693 113.112 267.437 111.936 267.437 110.592C267.437 109.248 267.693 108.08 268.205 107.088C268.717 106.08 269.437 105.296 270.365 104.736C271.309 104.176 272.405 103.896 273.653 103.896C274.869 103.896 275.933 104.168 276.845 104.712C277.773 105.256 278.485 106.04 278.981 107.064C279.477 108.088 279.725 109.32 279.725 110.76V111.456H270.629C270.693 112.576 270.997 113.424 271.541 114C272.101 114.56 272.837 114.84 273.749 114.84C274.437 114.84 275.005 114.688 275.453 114.384C275.917 114.064 276.237 113.624 276.413 113.064L279.557 113.256C279.205 114.504 278.509 115.488 277.469 116.208C276.445 116.928 275.197 117.288 273.725 117.288ZM270.629 109.392H276.557C276.493 108.352 276.197 107.584 275.669 107.088C275.141 106.576 274.469 106.32 273.653 106.32C272.837 106.32 272.157 106.584 271.613 107.112C271.085 107.64 270.757 108.4 270.629 109.392ZM281.887 117V104.184H284.671L284.767 107.328L284.479 107.184C284.623 106.496 284.871 105.912 285.223 105.432C285.591 104.936 286.031 104.56 286.543 104.304C287.071 104.032 287.647 103.896 288.271 103.896C289.359 103.896 290.239 104.208 290.911 104.832C291.583 105.44 292.007 106.28 292.183 107.352H291.775C291.919 106.6 292.167 105.976 292.519 105.48C292.871 104.968 293.311 104.576 293.839 104.304C294.383 104.032 294.991 103.896 295.663 103.896C296.543 103.896 297.303 104.088 297.943 104.472C298.583 104.84 299.071 105.384 299.407 106.104C299.759 106.824 299.935 107.712 299.935 108.768V117H296.863V109.56C296.863 108.504 296.679 107.712 296.311 107.184C295.959 106.656 295.415 106.392 294.679 106.392C294.183 106.392 293.759 106.52 293.407 106.776C293.055 107.032 292.783 107.408 292.591 107.904C292.415 108.384 292.327 108.968 292.327 109.656V117H289.471V109.656C289.471 108.6 289.311 107.792 288.991 107.232C288.671 106.672 288.119 106.392 287.335 106.392C286.839 106.392 286.415 106.52 286.063 106.776C285.727 107.032 285.455 107.408 285.247 107.904C285.055 108.384 284.959 108.968 284.959 109.656V117H281.887ZM308.284 117.288C307.004 117.288 305.892 117.016 304.948 116.472C304.004 115.912 303.276 115.128 302.764 114.12C302.252 113.112 301.996 111.936 301.996 110.592C301.996 109.248 302.252 108.08 302.764 107.088C303.276 106.08 303.996 105.296 304.924 104.736C305.868 104.176 306.964 103.896 308.212 103.896C309.428 103.896 310.492 104.168 311.404 104.712C312.332 105.256 313.044 106.04 313.54 107.064C314.036 108.088 314.284 109.32 314.284 110.76V111.456H305.188C305.252 112.576 305.556 113.424 306.1 114C306.66 114.56 307.396 114.84 308.308 114.84C308.996 114.84 309.564 114.688 310.012 114.384C310.476 114.064 310.796 113.624 310.972 113.064L314.116 113.256C313.764 114.504 313.068 115.488 312.028 116.208C311.004 116.928 309.756 117.288 308.284 117.288ZM305.188 109.392H311.116C311.052 108.352 310.756 107.584 310.228 107.088C309.7 106.576 309.028 106.32 308.212 106.32C307.396 106.32 306.716 106.584 306.172 107.112C305.644 107.64 305.316 108.4 305.188 109.392ZM316.446 117V104.184H319.23L319.35 107.784L318.99 107.64C319.118 106.744 319.382 106.024 319.782 105.48C320.182 104.936 320.67 104.536 321.246 104.28C321.822 104.024 322.454 103.896 323.142 103.896C324.086 103.896 324.878 104.104 325.518 104.52C326.174 104.936 326.67 105.512 327.006 106.248C327.342 106.968 327.51 107.808 327.51 108.768V117H324.438V109.752C324.438 109.032 324.366 108.424 324.222 107.928C324.078 107.432 323.838 107.056 323.502 106.8C323.182 106.528 322.75 106.392 322.206 106.392C321.39 106.392 320.734 106.68 320.238 107.256C319.758 107.832 319.518 108.664 319.518 109.752V117H316.446ZM334.865 117C333.585 117 332.641 116.704 332.033 116.112C331.441 115.52 331.145 114.592 331.145 113.328V101.184H334.217V113.04C334.217 113.632 334.345 114.048 334.601 114.288C334.857 114.512 335.257 114.624 335.801 114.624H337.601V117H334.865ZM329.129 106.56V104.184H337.601V106.56H329.129Z" fill="black"/>
</svg>
