<svg width="397" height="127" viewBox="0 0 397 127" fill="none" xmlns="http://www.w3.org/2000/svg">
<g opacity="0.87">
<path d="M95.676 76.5L90.012 57.396H66.492L60.828 76.5H52.476L73.02 9.492H83.676L104.22 76.5H95.676ZM78.684 18.036H77.82L68.412 50.388H88.092L78.684 18.036ZM134.903 77.652C131.447 77.652 128.311 77.044 125.495 75.828C122.743 74.612 120.375 72.884 118.391 70.644C116.471 68.34 114.999 65.62 113.975 62.484C112.951 59.284 112.439 55.7 112.439 51.732C112.439 47.828 112.951 44.276 113.975 41.076C114.999 37.876 116.471 35.156 118.391 32.916C120.375 30.612 122.743 28.852 125.495 27.636C128.311 26.42 131.447 25.812 134.903 25.812C138.359 25.812 141.463 26.42 144.215 27.636C147.031 28.852 149.399 30.612 151.319 32.916C153.303 35.156 154.807 37.876 155.831 41.076C156.855 44.276 157.367 47.828 157.367 51.732C157.367 55.7 156.855 59.284 155.831 62.484C154.807 65.62 153.303 68.34 151.319 70.644C149.399 72.884 147.031 74.612 144.215 75.828C141.463 77.044 138.359 77.652 134.903 77.652ZM134.903 71.028C139.191 71.028 142.647 69.748 145.271 67.188C147.895 64.628 149.207 60.66 149.207 55.284V48.18C149.207 42.804 147.895 38.836 145.271 36.276C142.647 33.716 139.191 32.436 134.903 32.436C130.615 32.436 127.159 33.716 124.535 36.276C121.911 38.836 120.599 42.804 120.599 48.18V55.284C120.599 60.66 121.911 64.628 124.535 67.188C127.159 69.748 130.615 71.028 134.903 71.028ZM203.217 68.436H202.833C202.321 69.652 201.681 70.836 200.913 71.988C200.145 73.076 199.185 74.036 198.033 74.868C196.945 75.7 195.633 76.372 194.097 76.884C192.561 77.396 190.769 77.652 188.721 77.652C183.537 77.652 179.377 76.02 176.241 72.756C173.105 69.428 171.537 64.756 171.537 58.74V26.964H179.217V57.396C179.217 61.94 180.209 65.332 182.193 67.572C184.177 69.748 187.089 70.836 190.929 70.836C192.465 70.836 193.969 70.644 195.441 70.26C196.913 69.876 198.225 69.3 199.377 68.532C200.529 67.764 201.457 66.804 202.161 65.652C202.865 64.436 203.217 62.996 203.217 61.332V26.964H210.897V76.5H203.217V68.436ZM243.211 76.5L225.451 26.964H233.227L240.331 47.7L248.011 70.068H248.395L256.075 47.7L263.179 26.964H270.763L253.003 76.5H243.211ZM305.574 77.652C301.99 77.652 298.758 77.044 295.878 75.828C293.062 74.612 290.63 72.884 288.582 70.644C286.598 68.34 285.062 65.62 283.974 62.484C282.886 59.284 282.342 55.732 282.342 51.828C282.342 47.86 282.886 44.276 283.974 41.076C285.126 37.876 286.694 35.156 288.678 32.916C290.662 30.612 293.03 28.852 295.782 27.636C298.598 26.42 301.702 25.812 305.094 25.812C308.422 25.812 311.43 26.42 314.118 27.636C316.87 28.852 319.206 30.548 321.126 32.724C323.046 34.836 324.518 37.364 325.542 40.308C326.566 43.252 327.078 46.484 327.078 50.004V53.652H290.406V55.956C290.406 58.132 290.758 60.148 291.462 62.004C292.166 63.86 293.158 65.46 294.438 66.804C295.782 68.148 297.382 69.204 299.238 69.972C301.158 70.676 303.27 71.028 305.574 71.028C308.902 71.028 311.782 70.26 314.214 68.724C316.646 67.188 318.502 65.076 319.782 62.388L325.446 66.228C323.974 69.556 321.51 72.308 318.054 74.484C314.662 76.596 310.502 77.652 305.574 77.652ZM305.094 32.148C302.982 32.148 301.03 32.532 299.238 33.3C297.446 34.068 295.878 35.124 294.534 36.468C293.254 37.812 292.23 39.412 291.462 41.268C290.758 43.06 290.406 45.044 290.406 47.22V47.892H318.822V46.836C318.822 44.66 318.47 42.676 317.766 40.884C317.126 39.092 316.198 37.556 314.982 36.276C313.83 34.932 312.39 33.908 310.662 33.204C308.998 32.5 307.142 32.148 305.094 32.148ZM305.574 20.34L300.582 18.036L308.742 1.716L315.75 5.076L305.574 20.34Z" fill="#585858"/>
</g>
<path opacity="0.5" d="M7.488 117.288C6.496 117.288 5.616 117.136 4.848 116.832C4.08 116.528 3.432 116.096 2.904 115.536C2.392 114.976 2 114.304 1.728 113.52C1.456 112.72 1.32 111.824 1.32 110.832C1.32 109.824 1.456 108.92 1.728 108.12C2.016 107.32 2.416 106.64 2.928 106.08C3.44 105.52 4.056 105.088 4.776 104.784C5.512 104.48 6.336 104.328 7.248 104.328C8.144 104.328 8.952 104.48 9.672 104.784C10.392 105.072 11 105.488 11.496 106.032C12.008 106.576 12.4 107.232 12.672 108C12.944 108.768 13.08 109.616 13.08 110.544V111.552H4.392V111.864C4.392 112.76 4.672 113.488 5.232 114.048C5.792 114.592 6.576 114.864 7.584 114.864C8.352 114.864 9.008 114.712 9.552 114.408C10.112 114.088 10.576 113.672 10.944 113.16L12.696 114.912C12.248 115.568 11.592 116.128 10.728 116.592C9.88 117.056 8.8 117.288 7.488 117.288ZM7.272 106.584C6.408 106.584 5.712 106.856 5.184 107.4C4.656 107.944 4.392 108.664 4.392 109.56V109.728H10.008V109.512C10.008 108.616 9.76 107.904 9.264 107.376C8.784 106.848 8.12 106.584 7.272 106.584ZM15.9506 114.576H19.7426V107.04H15.7106V104.616H19.7426V102.6C19.7426 102.104 19.8066 101.656 19.9346 101.256C20.0786 100.84 20.2946 100.488 20.5826 100.2C20.8706 99.896 21.2306 99.664 21.6626 99.504C22.1106 99.328 22.6306 99.24 23.2226 99.24H27.3986V101.664H22.8146V104.616H27.3986V107.04H22.8146V114.576H26.8466V117H15.9506V114.576ZM30.1013 114.576H33.8933V107.04H29.8613V104.616H33.8933V102.6C33.8933 102.104 33.9573 101.656 34.0853 101.256C34.2293 100.84 34.4453 100.488 34.7333 100.2C35.0213 99.896 35.3813 99.664 35.8133 99.504C36.2613 99.328 36.7813 99.24 37.3733 99.24H41.5493V101.664H36.9653V104.616H41.5493V107.04H36.9653V114.576H40.9973V117H30.1013V114.576ZM50.4199 102.696C49.6999 102.696 49.1879 102.544 48.8839 102.24C48.5959 101.936 48.4519 101.568 48.4519 101.136V100.56C48.4519 100.128 48.5959 99.76 48.8839 99.456C49.1879 99.152 49.6999 99 50.4199 99C51.1399 99 51.6439 99.152 51.9319 99.456C52.2359 99.76 52.3879 100.128 52.3879 100.56V101.136C52.3879 101.568 52.2359 101.936 51.9319 102.24C51.6439 102.544 51.1399 102.696 50.4199 102.696ZM44.8039 114.576H48.8839V107.04H44.8039V104.616H51.9559V114.576H55.7479V117H44.8039V114.576ZM64.2825 117.288C63.3385 117.288 62.4905 117.136 61.7385 116.832C60.9865 116.528 60.3465 116.096 59.8185 115.536C59.3065 114.976 58.9065 114.296 58.6185 113.496C58.3465 112.696 58.2105 111.8 58.2105 110.808C58.2105 109.816 58.3465 108.92 58.6185 108.12C58.9065 107.32 59.3065 106.64 59.8185 106.08C60.3465 105.52 60.9785 105.088 61.7145 104.784C62.4665 104.48 63.3145 104.328 64.2585 104.328C65.5705 104.328 66.6265 104.6 67.4265 105.144C68.2265 105.688 68.8345 106.408 69.2505 107.304L66.8745 108.6C66.6505 108.072 66.3305 107.648 65.9145 107.328C65.5145 106.992 64.9625 106.824 64.2585 106.824C63.3465 106.824 62.6425 107.088 62.1465 107.616C61.6665 108.144 61.4265 108.864 61.4265 109.776V111.84C61.4265 112.736 61.6665 113.456 62.1465 114C62.6425 114.528 63.3625 114.792 64.3065 114.792C65.0425 114.792 65.6265 114.624 66.0585 114.288C66.5065 113.952 66.8665 113.504 67.1385 112.944L69.4425 114.312C69.0265 115.192 68.3945 115.912 67.5465 116.472C66.7145 117.016 65.6265 117.288 64.2825 117.288ZM78.7211 102.696C78.0011 102.696 77.4891 102.544 77.1851 102.24C76.8971 101.936 76.7531 101.568 76.7531 101.136V100.56C76.7531 100.128 76.8971 99.76 77.1851 99.456C77.4891 99.152 78.0011 99 78.7211 99C79.4411 99 79.9451 99.152 80.2331 99.456C80.5371 99.76 80.6891 100.128 80.6891 100.56V101.136C80.6891 101.568 80.5371 101.936 80.2331 102.24C79.9451 102.544 79.4411 102.696 78.7211 102.696ZM73.1051 114.576H77.1851V107.04H73.1051V104.616H80.2571V114.576H84.0491V117H73.1051V114.576ZM92.3917 117.288C91.3997 117.288 90.5197 117.136 89.7517 116.832C88.9837 116.528 88.3357 116.096 87.8077 115.536C87.2957 114.976 86.9037 114.304 86.6317 113.52C86.3597 112.72 86.2237 111.824 86.2237 110.832C86.2237 109.824 86.3597 108.92 86.6317 108.12C86.9197 107.32 87.3197 106.64 87.8317 106.08C88.3437 105.52 88.9597 105.088 89.6797 104.784C90.4157 104.48 91.2397 104.328 92.1517 104.328C93.0477 104.328 93.8557 104.48 94.5757 104.784C95.2957 105.072 95.9037 105.488 96.3997 106.032C96.9117 106.576 97.3037 107.232 97.5757 108C97.8477 108.768 97.9837 109.616 97.9837 110.544V111.552H89.2957V111.864C89.2957 112.76 89.5757 113.488 90.1357 114.048C90.6957 114.592 91.4797 114.864 92.4877 114.864C93.2557 114.864 93.9117 114.712 94.4557 114.408C95.0157 114.088 95.4797 113.672 95.8477 113.16L97.5997 114.912C97.1517 115.568 96.4957 116.128 95.6317 116.592C94.7837 117.056 93.7037 117.288 92.3917 117.288ZM92.1757 106.584C91.3117 106.584 90.6157 106.856 90.0877 107.4C89.5597 107.944 89.2957 108.664 89.2957 109.56V109.728H94.9117V109.512C94.9117 108.616 94.6637 107.904 94.1677 107.376C93.6877 106.848 93.0237 106.584 92.1757 106.584ZM100.854 117V104.616H103.926V106.8H104.046C104.318 106.128 104.734 105.552 105.294 105.072C105.87 104.576 106.662 104.328 107.67 104.328C108.886 104.328 109.87 104.736 110.622 105.552C111.39 106.352 111.774 107.504 111.774 109.008V117H108.702V109.44C108.702 107.648 107.926 106.752 106.374 106.752C106.054 106.752 105.75 106.792 105.462 106.872C105.174 106.952 104.91 107.08 104.67 107.256C104.446 107.416 104.262 107.616 104.118 107.856C103.99 108.096 103.926 108.384 103.926 108.72V117H100.854ZM121.245 117C120.061 117 119.189 116.688 118.629 116.064C118.069 115.44 117.789 114.632 117.789 113.64V107.04H114.189V104.616H116.637C117.133 104.616 117.485 104.52 117.693 104.328C117.901 104.12 118.005 103.76 118.005 103.248V100.248H120.861V104.616H125.901V107.04H120.861V114.576H125.901V117H121.245ZM146.858 117L142.418 104.616H145.634L147.29 109.872L148.682 114.432H148.85L150.242 109.872L151.898 104.616H154.994L150.554 117H146.858ZM163.145 117.288C162.153 117.288 161.273 117.136 160.505 116.832C159.737 116.528 159.089 116.096 158.561 115.536C158.049 114.976 157.657 114.304 157.385 113.52C157.113 112.72 156.977 111.824 156.977 110.832C156.977 109.824 157.113 108.92 157.385 108.12C157.673 107.32 158.073 106.64 158.585 106.08C159.097 105.52 159.713 105.088 160.433 104.784C161.169 104.48 161.993 104.328 162.905 104.328C163.801 104.328 164.609 104.48 165.329 104.784C166.049 105.072 166.657 105.488 167.153 106.032C167.665 106.576 168.057 107.232 168.329 108C168.601 108.768 168.737 109.616 168.737 110.544V111.552H160.049V111.864C160.049 112.76 160.329 113.488 160.889 114.048C161.449 114.592 162.233 114.864 163.241 114.864C164.009 114.864 164.665 114.712 165.209 114.408C165.769 114.088 166.233 113.672 166.601 113.16L168.353 114.912C167.905 115.568 167.249 116.128 166.385 116.592C165.537 117.056 164.457 117.288 163.145 117.288ZM162.929 106.584C162.065 106.584 161.369 106.856 160.841 107.4C160.313 107.944 160.049 108.664 160.049 109.56V109.728H165.665V109.512C165.665 108.616 165.417 107.904 164.921 107.376C164.441 106.848 163.777 106.584 162.929 106.584ZM176.959 117.288C175.599 117.288 174.423 117.08 173.431 116.664C172.439 116.232 171.663 115.656 171.103 114.936L172.903 113.304C173.415 113.864 173.999 114.296 174.655 114.6C175.327 114.904 176.103 115.056 176.983 115.056C177.751 115.056 178.367 114.928 178.831 114.672C179.295 114.416 179.527 114.024 179.527 113.496C179.527 113.048 179.367 112.744 179.047 112.584C178.743 112.424 178.335 112.304 177.823 112.224L175.831 111.912C175.319 111.832 174.815 111.72 174.319 111.576C173.839 111.416 173.407 111.2 173.023 110.928C172.655 110.656 172.359 110.312 172.135 109.896C171.911 109.464 171.799 108.944 171.799 108.336C171.799 107.04 172.279 106.048 173.239 105.36C174.215 104.672 175.551 104.328 177.247 104.328C178.447 104.328 179.463 104.496 180.295 104.832C181.143 105.168 181.839 105.64 182.383 106.248L180.775 108.024C180.423 107.64 179.951 107.304 179.359 107.016C178.783 106.712 178.047 106.56 177.151 106.56C175.583 106.56 174.799 107.048 174.799 108.024C174.799 108.472 174.959 108.784 175.279 108.96C175.599 109.12 176.015 109.24 176.527 109.32L178.495 109.632C179.023 109.712 179.527 109.832 180.007 109.992C180.503 110.136 180.935 110.344 181.303 110.616C181.687 110.888 181.991 111.232 182.215 111.648C182.439 112.064 182.551 112.576 182.551 113.184C182.551 114.464 182.055 115.472 181.063 116.208C180.087 116.928 178.719 117.288 176.959 117.288ZM191.11 117.288C189.75 117.288 188.574 117.08 187.582 116.664C186.59 116.232 185.814 115.656 185.254 114.936L187.054 113.304C187.566 113.864 188.15 114.296 188.806 114.6C189.478 114.904 190.254 115.056 191.134 115.056C191.902 115.056 192.518 114.928 192.982 114.672C193.446 114.416 193.678 114.024 193.678 113.496C193.678 113.048 193.518 112.744 193.198 112.584C192.894 112.424 192.486 112.304 191.974 112.224L189.982 111.912C189.47 111.832 188.966 111.72 188.47 111.576C187.99 111.416 187.558 111.2 187.174 110.928C186.806 110.656 186.51 110.312 186.286 109.896C186.062 109.464 185.95 108.944 185.95 108.336C185.95 107.04 186.43 106.048 187.39 105.36C188.366 104.672 189.702 104.328 191.398 104.328C192.598 104.328 193.614 104.496 194.446 104.832C195.294 105.168 195.99 105.64 196.534 106.248L194.926 108.024C194.574 107.64 194.102 107.304 193.51 107.016C192.934 106.712 192.198 106.56 191.302 106.56C189.734 106.56 188.95 107.048 188.95 108.024C188.95 108.472 189.11 108.784 189.43 108.96C189.75 109.12 190.166 109.24 190.678 109.32L192.646 109.632C193.174 109.712 193.678 109.832 194.158 109.992C194.654 110.136 195.086 110.344 195.454 110.616C195.838 110.888 196.142 111.232 196.366 111.648C196.59 112.064 196.702 112.576 196.702 113.184C196.702 114.464 196.206 115.472 195.214 116.208C194.238 116.928 192.87 117.288 191.11 117.288ZM205.597 117.288C204.605 117.288 203.725 117.136 202.957 116.832C202.189 116.528 201.541 116.096 201.013 115.536C200.501 114.976 200.109 114.304 199.837 113.52C199.565 112.72 199.429 111.824 199.429 110.832C199.429 109.824 199.565 108.92 199.837 108.12C200.125 107.32 200.525 106.64 201.037 106.08C201.549 105.52 202.165 105.088 202.885 104.784C203.621 104.48 204.445 104.328 205.357 104.328C206.253 104.328 207.061 104.48 207.781 104.784C208.501 105.072 209.109 105.488 209.605 106.032C210.117 106.576 210.509 107.232 210.781 108C211.053 108.768 211.189 109.616 211.189 110.544V111.552H202.501V111.864C202.501 112.76 202.781 113.488 203.341 114.048C203.901 114.592 204.685 114.864 205.693 114.864C206.461 114.864 207.117 114.712 207.661 114.408C208.221 114.088 208.685 113.672 209.053 113.16L210.805 114.912C210.357 115.568 209.701 116.128 208.837 116.592C207.989 117.056 206.909 117.288 205.597 117.288ZM205.381 106.584C204.517 106.584 203.821 106.856 203.293 107.4C202.765 107.944 202.501 108.664 202.501 109.56V109.728H208.117V109.512C208.117 108.616 207.869 107.904 207.373 107.376C206.893 106.848 206.229 106.584 205.381 106.584ZM213.987 114.576H217.923V101.664H213.987V99.24H220.995V114.576H224.955V117H213.987V114.576ZM233.562 117.288C232.202 117.288 231.026 117.08 230.034 116.664C229.042 116.232 228.266 115.656 227.706 114.936L229.506 113.304C230.018 113.864 230.602 114.296 231.258 114.6C231.93 114.904 232.706 115.056 233.586 115.056C234.354 115.056 234.97 114.928 235.434 114.672C235.898 114.416 236.13 114.024 236.13 113.496C236.13 113.048 235.97 112.744 235.65 112.584C235.346 112.424 234.938 112.304 234.426 112.224L232.434 111.912C231.922 111.832 231.418 111.72 230.922 111.576C230.442 111.416 230.01 111.2 229.626 110.928C229.258 110.656 228.962 110.312 228.738 109.896C228.514 109.464 228.402 108.944 228.402 108.336C228.402 107.04 228.882 106.048 229.842 105.36C230.818 104.672 232.154 104.328 233.85 104.328C235.05 104.328 236.066 104.496 236.898 104.832C237.746 105.168 238.442 105.64 238.986 106.248L237.378 108.024C237.026 107.64 236.554 107.304 235.962 107.016C235.386 106.712 234.65 106.56 233.754 106.56C232.186 106.56 231.402 107.048 231.402 108.024C231.402 108.472 231.562 108.784 231.882 108.96C232.202 109.12 232.618 109.24 233.13 109.32L235.098 109.632C235.626 109.712 236.13 109.832 236.61 109.992C237.106 110.136 237.538 110.344 237.906 110.616C238.29 110.888 238.594 111.232 238.818 111.648C239.042 112.064 239.154 112.576 239.154 113.184C239.154 114.464 238.658 115.472 237.666 116.208C236.69 116.928 235.322 117.288 233.562 117.288ZM255.599 117V104.616H258.143V106.32H258.287C258.479 105.776 258.751 105.312 259.103 104.928C259.471 104.528 259.983 104.328 260.639 104.328C261.263 104.328 261.759 104.512 262.127 104.88C262.495 105.232 262.735 105.736 262.847 106.392H262.967C263.175 105.832 263.479 105.352 263.879 104.952C264.295 104.536 264.879 104.328 265.631 104.328C266.543 104.328 267.199 104.656 267.599 105.312C267.999 105.968 268.199 106.936 268.199 108.216V117H265.679V108.576C265.679 107.856 265.575 107.352 265.367 107.064C265.175 106.776 264.879 106.632 264.479 106.632C264.111 106.632 263.799 106.752 263.543 106.992C263.303 107.232 263.183 107.6 263.183 108.096V117H260.639V108.576C260.639 107.856 260.543 107.352 260.351 107.064C260.159 106.776 259.863 106.632 259.463 106.632C259.079 106.632 258.759 106.752 258.503 106.992C258.263 107.232 258.143 107.6 258.143 108.096V117H255.599ZM280.622 117C279.87 117 279.286 116.816 278.87 116.448C278.47 116.064 278.23 115.536 278.15 114.864H278.03C277.806 115.632 277.366 116.232 276.71 116.664C276.054 117.08 275.246 117.288 274.286 117.288C273.038 117.288 272.046 116.96 271.31 116.304C270.574 115.648 270.206 114.736 270.206 113.568C270.206 111.072 272.038 109.824 275.702 109.824H277.886V109.008C277.886 108.224 277.694 107.632 277.31 107.232C276.926 106.832 276.302 106.632 275.438 106.632C274.654 106.632 274.022 106.784 273.542 107.088C273.062 107.392 272.654 107.784 272.318 108.264L270.566 106.776C270.95 106.088 271.566 105.512 272.414 105.048C273.278 104.568 274.39 104.328 275.75 104.328C277.382 104.328 278.654 104.712 279.566 105.48C280.494 106.232 280.958 107.36 280.958 108.864V114.696H282.422V117H280.622ZM275.318 115.176C276.054 115.176 276.662 115.008 277.142 114.672C277.638 114.32 277.886 113.848 277.886 113.256V111.6H275.774C274.094 111.6 273.254 112.128 273.254 113.184V113.664C273.254 114.16 273.438 114.536 273.806 114.792C274.174 115.048 274.678 115.176 275.318 115.176ZM284.813 117V104.616H287.885V106.8H288.005C288.277 106.128 288.693 105.552 289.253 105.072C289.829 104.576 290.621 104.328 291.629 104.328C292.845 104.328 293.829 104.736 294.581 105.552C295.349 106.352 295.733 107.504 295.733 109.008V117H292.661V109.44C292.661 107.648 291.885 106.752 290.333 106.752C290.013 106.752 289.709 106.792 289.421 106.872C289.133 106.952 288.869 107.08 288.629 107.256C288.405 107.416 288.221 107.616 288.077 107.856C287.949 108.096 287.885 108.384 287.885 108.72V117H284.813ZM308.923 117C308.171 117 307.587 116.816 307.171 116.448C306.771 116.064 306.531 115.536 306.451 114.864H306.331C306.107 115.632 305.667 116.232 305.011 116.664C304.355 117.08 303.547 117.288 302.587 117.288C301.339 117.288 300.347 116.96 299.611 116.304C298.875 115.648 298.507 114.736 298.507 113.568C298.507 111.072 300.339 109.824 304.003 109.824H306.187V109.008C306.187 108.224 305.995 107.632 305.611 107.232C305.227 106.832 304.603 106.632 303.739 106.632C302.955 106.632 302.323 106.784 301.843 107.088C301.363 107.392 300.955 107.784 300.619 108.264L298.867 106.776C299.251 106.088 299.867 105.512 300.715 105.048C301.579 104.568 302.691 104.328 304.051 104.328C305.683 104.328 306.955 104.712 307.867 105.48C308.795 106.232 309.259 107.36 309.259 108.864V114.696H310.723V117H308.923ZM303.619 115.176C304.355 115.176 304.963 115.008 305.443 114.672C305.939 114.32 306.187 113.848 306.187 113.256V111.6H304.075C302.395 111.6 301.555 112.128 301.555 113.184V113.664C301.555 114.16 301.739 114.536 302.107 114.792C302.475 115.048 302.979 115.176 303.619 115.176ZM325.138 118.296C325.138 119.592 324.594 120.544 323.506 121.152C322.434 121.776 320.754 122.088 318.466 122.088C317.346 122.088 316.41 122.016 315.658 121.872C314.906 121.744 314.298 121.552 313.834 121.296C313.386 121.04 313.066 120.728 312.874 120.36C312.682 120.008 312.586 119.608 312.586 119.16C312.586 118.472 312.786 117.944 313.186 117.576C313.586 117.208 314.146 116.936 314.866 116.76V116.568C314.386 116.408 314.002 116.184 313.714 115.896C313.442 115.608 313.306 115.208 313.306 114.696C313.306 114.088 313.506 113.632 313.906 113.328C314.322 113.024 314.866 112.792 315.538 112.632V112.512C314.802 112.16 314.226 111.664 313.81 111.024C313.394 110.384 313.186 109.608 313.186 108.696C313.186 108.008 313.306 107.4 313.546 106.872C313.802 106.328 314.154 105.872 314.602 105.504C315.066 105.12 315.618 104.832 316.258 104.64C316.898 104.432 317.61 104.328 318.394 104.328C319.226 104.328 319.978 104.44 320.65 104.664V104.136C320.65 103.656 320.802 103.256 321.106 102.936C321.426 102.616 321.866 102.456 322.426 102.456H324.658V104.76H321.73V105.168C322.338 105.536 322.802 106.016 323.122 106.608C323.458 107.184 323.626 107.88 323.626 108.696C323.626 109.384 323.498 110 323.242 110.544C323.002 111.088 322.65 111.544 322.186 111.912C321.738 112.28 321.186 112.568 320.53 112.776C319.89 112.968 319.178 113.064 318.394 113.064C318.074 113.064 317.762 113.056 317.458 113.04C317.17 113.008 316.89 112.952 316.618 112.872C316.394 112.952 316.178 113.08 315.97 113.256C315.762 113.432 315.658 113.664 315.658 113.952C315.658 114.336 315.842 114.576 316.21 114.672C316.578 114.752 317.018 114.792 317.53 114.792H320.338C321.202 114.792 321.938 114.88 322.546 115.056C323.154 115.216 323.65 115.456 324.034 115.776C324.418 116.08 324.698 116.448 324.874 116.88C325.05 117.312 325.138 117.784 325.138 118.296ZM322.258 118.512C322.258 118.144 322.106 117.848 321.802 117.624C321.514 117.416 320.97 117.312 320.17 117.312H315.898C315.418 117.584 315.178 117.984 315.178 118.512C315.178 118.944 315.354 119.304 315.706 119.592C316.074 119.88 316.69 120.024 317.554 120.024H319.546C321.354 120.024 322.258 119.52 322.258 118.512ZM318.394 111.048C319.178 111.048 319.754 110.864 320.122 110.496C320.49 110.112 320.674 109.616 320.674 109.008V108.384C320.674 107.776 320.49 107.288 320.122 106.92C319.754 106.536 319.178 106.344 318.394 106.344C317.626 106.344 317.058 106.536 316.69 106.92C316.322 107.288 316.138 107.776 316.138 108.384V109.008C316.138 109.616 316.322 110.112 316.69 110.496C317.058 110.864 317.626 111.048 318.394 111.048ZM332.952 117.288C331.96 117.288 331.08 117.136 330.312 116.832C329.544 116.528 328.896 116.096 328.368 115.536C327.856 114.976 327.464 114.304 327.192 113.52C326.92 112.72 326.784 111.824 326.784 110.832C326.784 109.824 326.92 108.92 327.192 108.12C327.48 107.32 327.88 106.64 328.392 106.08C328.904 105.52 329.52 105.088 330.24 104.784C330.976 104.48 331.8 104.328 332.712 104.328C333.608 104.328 334.416 104.48 335.136 104.784C335.856 105.072 336.464 105.488 336.96 106.032C337.472 106.576 337.864 107.232 338.136 108C338.408 108.768 338.544 109.616 338.544 110.544V111.552H329.856V111.864C329.856 112.76 330.136 113.488 330.696 114.048C331.256 114.592 332.04 114.864 333.048 114.864C333.816 114.864 334.472 114.712 335.016 114.408C335.576 114.088 336.04 113.672 336.408 113.16L338.16 114.912C337.712 115.568 337.056 116.128 336.192 116.592C335.344 117.056 334.264 117.288 332.952 117.288ZM332.736 106.584C331.872 106.584 331.176 106.856 330.648 107.4C330.12 107.944 329.856 108.664 329.856 109.56V109.728H335.472V109.512C335.472 108.616 335.224 107.904 334.728 107.376C334.248 106.848 333.584 106.584 332.736 106.584ZM340.503 117V104.616H343.047V106.32H343.191C343.383 105.776 343.655 105.312 344.007 104.928C344.375 104.528 344.887 104.328 345.543 104.328C346.167 104.328 346.663 104.512 347.031 104.88C347.399 105.232 347.639 105.736 347.751 106.392H347.871C348.079 105.832 348.383 105.352 348.783 104.952C349.199 104.536 349.783 104.328 350.535 104.328C351.447 104.328 352.103 104.656 352.503 105.312C352.903 105.968 353.103 106.936 353.103 108.216V117H350.583V108.576C350.583 107.856 350.479 107.352 350.271 107.064C350.079 106.776 349.783 106.632 349.383 106.632C349.015 106.632 348.703 106.752 348.447 106.992C348.207 107.232 348.087 107.6 348.087 108.096V117H345.543V108.576C345.543 107.856 345.447 107.352 345.255 107.064C345.063 106.776 344.767 106.632 344.367 106.632C343.983 106.632 343.663 106.752 343.407 106.992C343.167 107.232 343.047 107.6 343.047 108.096V117H340.503ZM361.254 117.288C360.262 117.288 359.382 117.136 358.614 116.832C357.846 116.528 357.198 116.096 356.67 115.536C356.158 114.976 355.766 114.304 355.494 113.52C355.222 112.72 355.086 111.824 355.086 110.832C355.086 109.824 355.222 108.92 355.494 108.12C355.782 107.32 356.182 106.64 356.694 106.08C357.206 105.52 357.822 105.088 358.542 104.784C359.278 104.48 360.102 104.328 361.014 104.328C361.91 104.328 362.718 104.48 363.438 104.784C364.158 105.072 364.766 105.488 365.262 106.032C365.774 106.576 366.166 107.232 366.438 108C366.71 108.768 366.846 109.616 366.846 110.544V111.552H358.158V111.864C358.158 112.76 358.438 113.488 358.998 114.048C359.558 114.592 360.342 114.864 361.35 114.864C362.118 114.864 362.774 114.712 363.318 114.408C363.878 114.088 364.342 113.672 364.71 113.16L366.462 114.912C366.014 115.568 365.358 116.128 364.494 116.592C363.646 117.056 362.566 117.288 361.254 117.288ZM361.038 106.584C360.174 106.584 359.478 106.856 358.95 107.4C358.422 107.944 358.158 108.664 358.158 109.56V109.728H363.774V109.512C363.774 108.616 363.526 107.904 363.03 107.376C362.55 106.848 361.886 106.584 361.038 106.584ZM369.716 117V104.616H372.788V106.8H372.908C373.18 106.128 373.596 105.552 374.156 105.072C374.732 104.576 375.524 104.328 376.532 104.328C377.748 104.328 378.732 104.736 379.484 105.552C380.252 106.352 380.636 107.504 380.636 109.008V117H377.564V109.44C377.564 107.648 376.788 106.752 375.236 106.752C374.916 106.752 374.612 106.792 374.324 106.872C374.036 106.952 373.772 107.08 373.532 107.256C373.308 107.416 373.124 107.616 372.98 107.856C372.852 108.096 372.788 108.384 372.788 108.72V117H369.716ZM390.107 117C388.923 117 388.051 116.688 387.491 116.064C386.931 115.44 386.651 114.632 386.651 113.64V107.04H383.051V104.616H385.499C385.995 104.616 386.347 104.52 386.555 104.328C386.763 104.12 386.867 103.76 386.867 103.248V100.248H389.723V104.616H394.763V107.04H389.723V114.576H394.763V117H390.107Z" fill="black"/>
</svg>
